<svg id="Layer_1" data-name="Layer 1" xmlns="http://www.w3.org/2000/svg" xmlns:xlink="http://www.w3.org/1999/xlink" viewBox="0 0 1280 1280"><defs><style>.cls-1{fill:none;}.cls-2{clip-path:url(#clip-path);}.cls-3{fill:#a37b1d;}.cls-4{fill:#c79c26;}.cls-5{fill:#7d550c;}.cls-6{fill:#5289cc;}.cls-7{fill:#17355c;}.cls-8{clip-path:url(#clip-path-2);}.cls-9{fill:#c2d8f2;}</style><clipPath id="clip-path"><polygon id="Mask" class="cls-1" points="1083.8 896.2 1083.8 383.8 640 127.6 196.2 383.8 196.2 896.2 640 1152.4 1083.8 896.2"/></clipPath><clipPath id="clip-path-2"><path class="cls-1" d="M640,1224.6,133.7,932.3V347.7L640,55.4l506.3,292.3V932.3Zm426.3-338.5V393.9L640,147.8,213.7,393.9V886.1L640,1132.2Z"/></clipPath></defs><title>banking</title><g id="Inner"><g class="cls-2"><g id="Banking"><ellipse class="cls-3" cx="640" cy="587.4" rx="700.4" ry="278"/><path class="cls-4" d="M144.7,941.9V713.1h990.6V941.9Z"/><polygon class="cls-3" points="144.7 940.9 1135.3 940.9 1135.3 1132.7 144.7 1132.7 144.7 940.9"/><path class="cls-4" d="M144.7,422.5V147.1h990.6V422.5Z"/><ellipse class="cls-5" cx="440" cy="622" rx="34.1" ry="700.4"/><ellipse class="cls-5" cx="840" cy="622" rx="34.1" ry="700.4"/></g></g></g><g id="Outer"><path class="cls-6" d="M1165.1,943.2V336.8L640,33.6,114.9,336.8V943.2L640,1246.4ZM213.7,393.9,640,147.8l426.3,246.1V886.1L640,1132.2,213.7,886.1Z"/><path class="cls-7" d="M640,55.4l506.3,292.3V932.3L640,1224.6,133.7,932.3V347.7L640,55.4M640,0,85.7,320V960L640,1280l554.3-320V320L640,0Z"/></g><g id="Line"><g class="cls-8"><rect class="cls-9" x="521.5" width="32" height="1280"/></g></g></svg>