<svg id="Layer_1" data-name="Layer 1" xmlns="http://www.w3.org/2000/svg" xmlns:xlink="http://www.w3.org/1999/xlink" viewBox="0 0 1280 1280"><defs><style>.cls-1{fill:none;}.cls-2{clip-path:url(#clip-path);}.cls-3{fill:#1c0702;}.cls-4{fill:#3b1d0a;}.cls-5{fill:#72561e;}.cls-6{fill:#8c6f21;}.cls-7{fill:#5289cc;}.cls-8{fill:#17355c;}.cls-9{clip-path:url(#clip-path-2);}.cls-10{fill:#c2d8f2;}</style><clipPath id="clip-path"><polygon id="Mask" class="cls-1" points="1083.76 896.21 1083.76 383.79 640 127.59 196.24 383.79 196.24 896.21 640 1152.41 1083.76 896.21"/></clipPath><clipPath id="clip-path-2"><path class="cls-1" d="M640,1224.57,133.74,932.29V347.71L640,55.43l506.26,292.28V932.29ZM1066.26,886.1V393.9L640,147.8,213.74,393.9V886.1L640,1132.2Z"/></clipPath></defs><title>Bronze Working</title><g id="Inner"><g class="cls-2"><g id="Bronze_Working" data-name="Bronze Working"><path class="cls-3" d="M157.34,807l-8.49-98.09,986.83-85.49,8.5,98.09Z"/><path class="cls-3" d="M369.37,454.81,344.72,170.22,850.1,126.44,874.75,411Z"/><path class="cls-4" d="M172.75,984.45,1159.53,899q8.22,94.86,16.46,189.73l-986.83,85.49Z"/><path class="cls-5" d="M848.24,126.6,1089,105.75q12.32,142.29,24.65,284.59L872.9,411.19Z"/><path class="cls-5" d="M105.85,190.92l240.72-20.86q12.33,142.29,24.65,284.59L130.51,475.51Z"/><path class="cls-6" d="M128.53,474.38l986.83-85.5,20.37,235.32L148.94,709.68Q138.74,592,128.53,474.38Z"/><path class="cls-6" d="M157.28,806.26l986.84-85.49q7.74,89.55,15.49,179.11L172.82,985.37Z"/></g></g></g><g id="Outer"><path class="cls-7" d="M1165.12,943.18V336.82L640,33.65,114.88,336.82V943.18L640,1246.35ZM213.74,393.9,640,147.8l426.26,246.1V886.1L640,1132.2,213.74,886.1Z"/><path class="cls-8" d="M640,55.43l506.26,292.28V932.29L640,1224.57,133.74,932.29V347.71L640,55.43M640,0,85.74,320V960L640,1280l554.26-320V320L640,0Z"/></g><g id="Line"><g class="cls-9"><rect class="cls-10" x="521.53" width="32" height="1280"/></g></g></svg>