<svg id="Layer_1" data-name="Layer 1" xmlns="http://www.w3.org/2000/svg" xmlns:xlink="http://www.w3.org/1999/xlink" viewBox="0 0 1280 1280"><defs><style>.cls-1{fill:none;}.cls-2{clip-path:url(#clip-path);}.cls-3{fill:#c0b8af;}.cls-4{fill:#7e766b;}.cls-5{fill:#47413b;}.cls-6{fill:#87390b;}.cls-7{fill:#5289cc;}.cls-8{fill:#17355c;}.cls-9{clip-path:url(#clip-path-2);}.cls-10{fill:#c2d8f2;}</style><clipPath id="clip-path"><polygon id="Mask" class="cls-1" points="1083.76 896.21 1083.76 383.79 640 127.59 196.24 383.79 196.24 896.21 640 1152.41 1083.76 896.21"/></clipPath><clipPath id="clip-path-2"><path class="cls-1" d="M640,1224.57,133.74,932.29V347.71L640,55.43l506.26,292.28V932.29ZM1066.26,886.1V393.9L640,147.8,213.74,393.9V886.1L640,1132.2Z"/></clipPath></defs><title>Castles</title><g id="Inner"><g class="cls-2"><g id="Castles"><path class="cls-3" d="M148.22,144.74l987,.79-3.18,989.73-987.34-.8Z"/><path class="cls-4" d="M382.47,1134.64V244.14H896.08v890.5Z"/><path class="cls-5" d="M382.47,295.12H896.08l-.18,239H382.65Z"/><path class="cls-6" d="M148,148.69h987.31V246.6H148Z"/></g></g></g><g id="Outer"><path class="cls-7" d="M1165.12,943.18V336.82L640,33.65,114.88,336.82V943.18L640,1246.35ZM213.74,393.9,640,147.8l426.26,246.1V886.1L640,1132.2,213.74,886.1Z"/><path class="cls-8" d="M640,55.43l506.26,292.28V932.29L640,1224.57,133.74,932.29V347.71L640,55.43M640,0,85.74,320V960L640,1280l554.26-320V320L640,0Z"/></g><g id="Line"><g class="cls-9"><rect class="cls-10" x="521.53" width="32" height="1280"/></g></g></svg>