<svg id="Layer_1" data-name="Layer 1" xmlns="http://www.w3.org/2000/svg" xmlns:xlink="http://www.w3.org/1999/xlink" viewBox="0 0 1280 1280"><defs><style>.cls-1{fill:none;}.cls-2{clip-path:url(#clip-path);}.cls-3{fill:#2c2127;}.cls-4{fill:#7f6c73;}.cls-5{fill:#69541b;}.cls-6{fill:#dbc749;}.cls-7{fill:#9e8328;}.cls-8{fill:#5289cc;}.cls-9{fill:#17355c;}.cls-10{clip-path:url(#clip-path-2);}.cls-11{fill:#c2d8f2;}</style><clipPath id="clip-path"><polygon id="Mask" class="cls-1" points="1083.8 896.2 1083.8 383.8 640 127.6 196.2 383.8 196.2 896.2 640 1152.4 1083.8 896.2"/></clipPath><clipPath id="clip-path-2"><path class="cls-1" d="M640,1224.6,133.7,932.3V347.7L640,55.4l506.3,292.3V932.3Zm426.3-338.5V393.9L640,147.8,213.7,393.9V886.1L640,1132.2Z"/></clipPath></defs><title>construction</title><g id="Inner"><g class="cls-2"><g id="Construction"><path class="cls-3" d="M271.7,759.9,578.8,109.5l315.6,149-307,650.4Z"/><path class="cls-4" d="M376.8,14.1,602.1,120.5,295,770.9,69.7,664.5Z"/><path class="cls-5" d="M892.7,257.7l394,186L979.6,1094.1l-394-186Z"/><path class="cls-6" d="M181,698.4l967.7,210q-21.2,97.1-42.2,194.1L138.9,892.4Q159.9,795.5,181,698.4Z"/><path class="cls-7" d="M139.1,891.4l967.7,210.1L1059.7,1319l-968-210.1Z"/></g></g></g><g id="Outer"><path class="cls-8" d="M1165.1,943.2V336.8L640,33.6,114.9,336.8V943.2L640,1246.4ZM213.7,393.9,640,147.8l426.3,246.1V886.1L640,1132.2,213.7,886.1Z"/><path class="cls-9" d="M640,55.4l506.3,292.3V932.3L640,1224.6,133.7,932.3V347.7L640,55.4M640,0,85.7,320V960L640,1280l554.3-320V320L640,0Z"/></g><g id="Line"><g class="cls-10"><rect class="cls-11" x="521.5" width="32" height="1280"/></g></g></svg>