<svg id="Layer_1" data-name="Layer 1" xmlns="http://www.w3.org/2000/svg" xmlns:xlink="http://www.w3.org/1999/xlink" viewBox="0 0 1280 1280"><defs><style>.cls-1{fill:none;}.cls-2{clip-path:url(#clip-path);}.cls-3{fill:#524129;}.cls-4{fill:#765f34;}.cls-5{fill:#93938b;}.cls-6{fill:#5289cc;}.cls-7{fill:#17355c;}.cls-8{clip-path:url(#clip-path-2);}.cls-9{fill:#c2d8f2;}</style><clipPath id="clip-path"><polygon id="Mask" class="cls-1" points="1083.8 896.2 1083.8 383.8 640 127.6 196.2 383.8 196.2 896.2 640 1152.4 1083.8 896.2"/></clipPath><clipPath id="clip-path-2"><path class="cls-1" d="M640,1224.6,133.7,932.3V347.7L640,55.4l506.3,292.3V932.3Zm426.3-338.5V393.9L640,147.8,213.7,393.9V886.1L640,1132.2Z"/></clipPath></defs><title>currency</title><g id="Inner"><g class="cls-2"><g id="Currency"><path class="cls-3" d="M452.5-34l861.8,487.5L1018.2,977.3,156,489.6Q304.4,227.9,452.5-34Z"/><path class="cls-4" d="M205,379.5l939.1,315.2L952.2,1266.2,13.2,951Z"/><path class="cls-5" d="M-59.1,627.6,654.5-59.1,909.8,206.1,196,892.9Z"/></g></g></g><g id="Outer"><path class="cls-6" d="M1165.1,943.2V336.8L640,33.6,114.9,336.8V943.2L640,1246.4ZM213.7,393.9,640,147.8l426.3,246.1V886.1L640,1132.2,213.7,886.1Z"/><path class="cls-7" d="M640,55.4l506.3,292.3V932.3L640,1224.6,133.7,932.3V347.7L640,55.4M640,0,85.7,320V960L640,1280l554.3-320V320L640,0Z"/></g><g id="Line"><g class="cls-8"><rect class="cls-9" x="521.5" width="32" height="1280"/></g></g></svg>