<svg id="Layer_1" data-name="Layer 1" xmlns="http://www.w3.org/2000/svg" xmlns:xlink="http://www.w3.org/1999/xlink" viewBox="0 0 1280 1280"><defs><style>.cls-1{fill:none;}.cls-2{clip-path:url(#clip-path);}.cls-3{fill:#373737;}.cls-4{fill:#838586;}.cls-5{fill:#faf8ce;}.cls-6{fill:#e4e679;}.cls-7{fill:#d8d946;}.cls-8{fill:#5289cc;}.cls-9{fill:#17355c;}.cls-10{clip-path:url(#clip-path-2);}.cls-11{fill:#c2d8f2;}</style><clipPath id="clip-path"><polygon id="Mask" class="cls-1" points="1083.76 896.21 1083.76 383.79 640 127.59 196.24 383.79 196.24 896.21 640 1152.41 1083.76 896.21"/></clipPath><clipPath id="clip-path-2"><path class="cls-1" d="M640,1224.57,133.74,932.29V347.71L640,55.43l506.26,292.28V932.29ZM1066.26,886.1V393.9L640,147.8,213.74,393.9V886.1L640,1132.2Z"/></clipPath></defs><title>Iron Working</title><g id="Inner"><g class="cls-2"><g id="Iron_Working" data-name="Iron Working"><path class="cls-3" d="M155.26,785.87-31.93,447.27,834.14-31.52l187.19,338.59Z"/><path class="cls-4" d="M154.49,784.48l866.07-478.8,122.62,220.85L276.3,1005.77Z"/><path class="cls-5" d="M275.83,1004.91,1142.7,525.67l69.12,125.17L345.07,1130Z"/><path class="cls-6" d="M344.77,1129.46l866.75-479.17q26,47.54,52,95.05L397.6,1224.06Z"/><path class="cls-7" d="M397.35,1223.61l865.93-478.72,48.23,87.25L445.58,1310.86Z"/></g></g></g><g id="Outer"><path class="cls-8" d="M1165.12,943.18V336.82L640,33.65,114.88,336.82V943.18L640,1246.35ZM213.74,393.9,640,147.8l426.26,246.1V886.1L640,1132.2,213.74,886.1Z"/><path class="cls-9" d="M640,55.43l506.26,292.28V932.29L640,1224.57,133.74,932.29V347.71L640,55.43M640,0,85.74,320V960L640,1280l554.26-320V320L640,0Z"/></g><g id="Line"><g class="cls-10"><rect class="cls-11" x="521.53" width="32" height="1280"/></g></g></svg>