<svg id="Layer_1" data-name="Layer 1" xmlns="http://www.w3.org/2000/svg" xmlns:xlink="http://www.w3.org/1999/xlink" viewBox="0 0 1280 1280"><defs><style>.cls-1{fill:none;}.cls-2{clip-path:url(#clip-path);}.cls-3{fill:#2c8208;}.cls-4{fill:#481f16;}.cls-5{fill:#772e1b;}.cls-6{fill:#124309;}.cls-7{fill:#3fa211;}.cls-8{fill:#5289cc;}.cls-9{fill:#17355c;}.cls-10{clip-path:url(#clip-path-2);}.cls-11{fill:#c2d8f2;}</style><clipPath id="clip-path"><polygon id="Mask" class="cls-1" points="1083.8 896.2 1083.8 383.8 640 127.6 196.2 383.8 196.2 896.2 640 1152.4 1083.8 896.2"/></clipPath><clipPath id="clip-path-2"><path class="cls-1" d="M640,1224.6,133.7,932.3V347.7L640,55.4l506.3,292.3V932.3Zm426.3-338.5V393.9L640,147.8,213.7,393.9V886.1L640,1132.2Z"/></clipPath></defs><title>illigation</title><g id="Inner"><g class="cls-2"><g id="Illigation"><ellipse class="cls-3" cx="645.5" cy="399.1" rx="171.2" ry="700.2" transform="translate(231.7 1035.3) rotate(-88.7)"/><polygon class="cls-4" points="138.5 912.9 1128.5 935.6 1123.7 1144.5 133.7 1121.8 138.5 912.9"/><rect class="cls-5" x="533" y="327.4" width="205.5" height="990.24" transform="translate(-201 1439.3) rotate(-88.7)"/><path class="cls-6" d="M147.8,507.7l990,22.7-4.5,201.7L143,709.4Z"/><path class="cls-7" d="M156.2,135.7l990.2,22.6q-1.5,66-3.1,132.1l-990-22.7Z"/></g></g></g><g id="Outer"><path class="cls-8" d="M1165.1,943.2V336.8L640,33.6,114.9,336.8V943.2L640,1246.4ZM213.7,393.9,640,147.8l426.3,246.1V886.1L640,1132.2,213.7,886.1Z"/><path class="cls-9" d="M640,55.4l506.3,292.3V932.3L640,1224.6,133.7,932.3V347.7L640,55.4M640,0,85.7,320V960L640,1280l554.3-320V320L640,0Z"/></g><g id="Line"><g class="cls-10"><rect class="cls-11" x="521.5" width="32" height="1280"/></g></g></svg>