<svg id="Layer_1" data-name="Layer 1" xmlns="http://www.w3.org/2000/svg" xmlns:xlink="http://www.w3.org/1999/xlink" viewBox="0 0 1280 1280"><defs><style>.cls-1{fill:none;}.cls-2{clip-path:url(#clip-path);}.cls-3{fill:#474545;}.cls-4{fill:#7d7d7d;}.cls-5{fill:#b8b7b7;}.cls-6{fill:#5c3524;}.cls-7{fill:#e27944;}.cls-8{fill:#5289cc;}.cls-9{fill:#17355c;}.cls-10{clip-path:url(#clip-path-2);}.cls-11{fill:#c2d8f2;}</style><clipPath id="clip-path"><polygon id="Mask" class="cls-1" points="1083.76 896.21 1083.76 383.79 640 127.59 196.24 383.79 196.24 896.21 640 1152.41 1083.76 896.21"/></clipPath><clipPath id="clip-path-2"><path class="cls-1" d="M640,1224.57,133.74,932.29V347.71L640,55.43l506.26,292.28V932.29ZM1066.26,886.1V393.9L640,147.8,213.74,393.9V886.1L640,1132.2Z"/></clipPath></defs><title>Masonry</title><g id="Inner"><g class="cls-2"><g id="Masonry"><path class="cls-3" d="M306.66,1027.32,184.51,851.72,996.92,286.58l122.15,175.6Z"/><path class="cls-4" d="M306.06,1026.45l812.41-565.14L1238.77,634,426.1,1199.3Z"/><path class="cls-5" d="M425.58,1198.55l812.67-565.33,90,128.82L515.07,1327.69Z"/><path class="cls-5" d="M123.8,764.72,936.47,199.4Q967.1,243.2,997.74,287L184.6,852.63Z"/><path class="cls-6" d="M-46.86,516.58,236.65,319.36l172.57,248L125.7,764.64Z"/><path class="cls-7" d="M234.64,320.77l529-368q86.26,124,172.54,248.08L407.22,568.81Z"/></g></g></g><g id="Outer"><path class="cls-8" d="M1165.12,943.18V336.82L640,33.65,114.88,336.82V943.18L640,1246.35ZM213.74,393.9,640,147.8l426.26,246.1V886.1L640,1132.2,213.74,886.1Z"/><path class="cls-9" d="M640,55.43l506.26,292.28V932.29L640,1224.57,133.74,932.29V347.71L640,55.43M640,0,85.74,320V960L640,1280l554.26-320V320L640,0Z"/></g><g id="Line"><g class="cls-10"><rect class="cls-11" x="521.53" width="32" height="1280"/></g></g></svg>