<svg id="Layer_1" data-name="Layer 1" xmlns="http://www.w3.org/2000/svg" xmlns:xlink="http://www.w3.org/1999/xlink" viewBox="0 0 1280 1280"><defs><style>.cls-1{fill:none;}.cls-2{clip-path:url(#clip-path);}.cls-3{fill:#805f43;}.cls-4{fill:#4a3a2d;}.cls-5{fill:#af8f72;}.cls-6{fill:#c4aa97;}.cls-7{fill:#405466;}.cls-8{fill:#5289cc;}.cls-9{fill:#17355c;}.cls-10{clip-path:url(#clip-path-2);}.cls-11{fill:#c2d8f2;}</style><clipPath id="clip-path"><polygon id="Mask" class="cls-1" points="1083.76 896.21 1083.76 383.79 640 127.59 196.24 383.79 196.24 896.21 640 1152.41 1083.76 896.21"/></clipPath><clipPath id="clip-path-2"><path class="cls-1" d="M640,1224.57,133.74,932.29V347.71L640,55.43l506.26,292.28V932.29ZM1066.26,886.1V393.9L640,147.8,213.74,393.9V886.1L640,1132.2Z"/></clipPath></defs><title>Mass Production</title><g id="Inner"><g class="cls-2"><g id="Mass_Production" data-name="Mass Production"><path class="cls-3" d="M438.9,158.42H777.22l.09,955.72H438.81Z"/><path class="cls-4" d="M146.47,158.42H440.38c0,274,0,681.76-.05,955.71H146.52C146.5,840.18,146.49,432.38,146.47,158.42Z"/><path class="cls-5" d="M775.58,158.42h357.75v955.72H775.58Z"/><path class="cls-6" d="M-54.74,562.82,719.7-54.46,866.3,129.33,91.72,746.72Z"/><path class="cls-7" d="M560.55,1334.33,401.23,1134.45l774-616.93L1334.56,717.4Z"/></g></g></g><g id="Outer"><path class="cls-8" d="M1165.12,943.18V336.82L640,33.65,114.88,336.82V943.18L640,1246.35ZM213.74,393.9,640,147.8l426.26,246.1V886.1L640,1132.2,213.74,886.1Z"/><path class="cls-9" d="M640,55.43l506.26,292.28V932.29L640,1224.57,133.74,932.29V347.71L640,55.43M640,0,85.74,320V960L640,1280l554.26-320V320L640,0Z"/></g><g id="Line"><g class="cls-10"><rect class="cls-11" x="521.53" width="32" height="1280"/></g></g></svg>