<svg id="Layer_1" data-name="Layer 1" xmlns="http://www.w3.org/2000/svg" xmlns:xlink="http://www.w3.org/1999/xlink" viewBox="0 0 1280 1280"><defs><style>.cls-1{fill:none;}.cls-2{clip-path:url(#clip-path);}.cls-3{fill:#1e1613;}.cls-4{fill:#752f09;}.cls-5{fill:#ba4c0b;}.cls-6{fill:#f49f0e;}.cls-7{fill:#faf5a3;}.cls-8{fill:#5289cc;}.cls-9{fill:#17355c;}.cls-10{clip-path:url(#clip-path-2);}.cls-11{fill:#c2d8f2;}</style><clipPath id="clip-path"><polygon id="Mask" class="cls-1" points="1083.8 896.2 1083.8 383.8 640 127.6 196.2 383.8 196.2 896.2 640 1152.4 1083.8 896.2"/></clipPath><clipPath id="clip-path-2"><path class="cls-1" d="M640,1224.6,133.7,932.3V347.7L640,55.4l506.3,292.3V932.3Zm426.3-338.5V393.9L640,147.8,213.7,393.9V886.1L640,1132.2Z"/></clipPath></defs><title>metalCasting</title><g id="Inner"><g class="cls-2"><g id="Metal_Casting" data-name="Metal Casting"><polygon class="cls-3" points="156.6 764.4 1139.1 638.4 1194.1 1066.9 211.6 1192.9 156.6 764.4"/><rect class="cls-4" x="147.6" y="428.1" width="990.5" height="469.14" transform="matrix(0.99, -0.13, 0.13, 0.99, -79.07, 87.16)"/><polygon class="cls-5" points="86 213.5 1068.5 87.5 1104.5 368.8 122.1 494.8 86 213.5"/><rect class="cls-6" x="-66.2" y="605.2" width="1081.9" height="55.11" transform="translate(-202.6 1041.3) rotate(-84.2)"/><rect class="cls-7" x="32.7" y="570.3" width="1081.9" height="144.83" transform="translate(-123.6 1148.8) rotate(-84.2)"/></g></g></g><g id="Outer"><path class="cls-8" d="M1165.1,943.2V336.8L640,33.6,114.9,336.8V943.2L640,1246.4ZM213.7,393.9,640,147.8l426.3,246.1V886.1L640,1132.2,213.7,886.1Z"/><path class="cls-9" d="M640,55.4l506.3,292.3V932.3L640,1224.6,133.7,932.3V347.7L640,55.4M640,0,85.7,320V960L640,1280l554.3-320V320L640,0Z"/></g><g id="Line"><g class="cls-10"><rect class="cls-11" x="521.5" width="32" height="1280"/></g></g></svg>