<svg id="Layer_1" data-name="Layer 1" xmlns="http://www.w3.org/2000/svg" xmlns:xlink="http://www.w3.org/1999/xlink" viewBox="0 0 1280 1280"><defs><style>.cls-1{fill:none;}.cls-2{clip-path:url(#clip-path);}.cls-3{fill:#c2c2c2;}.cls-4{fill:#828282;}.cls-5{fill:#a0a0a0;}.cls-6{fill:#5289cc;}.cls-7{fill:#17355c;}.cls-8{clip-path:url(#clip-path-2);}.cls-9{fill:#c2d8f2;}</style><clipPath id="clip-path"><polygon id="Mask" class="cls-1" points="1083.76 896.21 1083.76 383.79 640 127.59 196.24 383.79 196.24 896.21 640 1152.41 1083.76 896.21"/></clipPath><clipPath id="clip-path-2"><path class="cls-1" d="M640,1224.57,133.74,932.29V347.71L640,55.43l506.26,292.28V932.29ZM1066.26,886.1V393.9L640,147.8,213.74,393.9V886.1L640,1132.2Z"/></clipPath></defs><title>Military Tactics</title><g id="Inner"><g class="cls-2"><g id="Military_Tactics" data-name="Military Tactics"><path class="cls-3" d="M144.74,924.18V145.26h990.52V924.18Z"/><path class="cls-4" d="M144.74,921.72h990.52q0,105.79-.1,211.61H144.84Z"/><path class="cls-3" d="M312.46,150.33,511.14-172.22l843.37,519.51L1155.82,669.84Z"/><path class="cls-5" d="M313.09,149.31l843.36,519.5L1100.79,759,257.6,239.58Z"/></g></g></g><g id="Outer"><path class="cls-6" d="M1165.12,943.18V336.82L640,33.65,114.88,336.82V943.18L640,1246.35ZM213.74,393.9,640,147.8l426.26,246.1V886.1L640,1132.2,213.74,886.1Z"/><path class="cls-7" d="M640,55.43l506.26,292.28V932.29L640,1224.57,133.74,932.29V347.71L640,55.43M640,0,85.74,320V960L640,1280l554.26-320V320L640,0Z"/></g><g id="Line"><g class="cls-8"><rect class="cls-9" x="521.53" width="32" height="1280"/></g></g></svg>