<svg id="Layer_1" data-name="Layer 1" xmlns="http://www.w3.org/2000/svg" xmlns:xlink="http://www.w3.org/1999/xlink" viewBox="0 0 1280 1280"><defs><style>.cls-1{fill:none;}.cls-2{clip-path:url(#clip-path);}.cls-3{fill:#52220a;}.cls-4{fill:#351908;}.cls-5{fill:#863916;}.cls-6{fill:#b45727;}.cls-7{fill:#1b0706;}.cls-8{fill:#5289cc;}.cls-9{fill:#17355c;}.cls-10{clip-path:url(#clip-path-2);}.cls-11{fill:#c2d8f2;}</style><clipPath id="clip-path"><polygon id="Mask" class="cls-1" points="1083.8 896.2 1083.8 383.8 640 127.6 196.2 383.8 196.2 896.2 640 1152.4 1083.8 896.2"/></clipPath><clipPath id="clip-path-2"><path class="cls-1" d="M640,1224.6,133.7,932.3V347.7L640,55.4l506.3,292.3V932.3Zm426.3-338.5V393.9L640,147.8,213.7,393.9V886.1L640,1132.2Z"/></clipPath></defs><title>pottery</title><g id="Inner"><g class="cls-2"><g id="Pottery"><path class="cls-3" d="M878.3,161.9l284.8,18.2-62.6,982.5-284.8-18.1Q846.9,653.1,878.3,161.9Z"/><polygon class="cls-4" points="772 155.2 709.4 1137.7 423.9 1119.5 486.5 136.9 772 155.2"/><rect class="cls-5" x="-206.4" y="479.4" width="984.6" height="276.01" transform="translate(-348.4 863.5) rotate(-86.4)"/><path class="cls-6" d="M892.8,162.8q-31.3,491.2-62.6,982.6l-131.7-8.1,62.7-983.1Z"/><path class="cls-7" d="M500.3,137.3q-31.4,491.9-62.6,983.6l-62.4-4,62.6-983.6Z"/></g></g></g><g id="Outer"><path class="cls-8" d="M1165.1,943.2V336.8L640,33.6,114.9,336.8V943.2L640,1246.4ZM213.7,393.9,640,147.8l426.3,246.1V886.1L640,1132.2,213.7,886.1Z"/><path class="cls-9" d="M640,55.4l506.3,292.3V932.3L640,1224.6,133.7,932.3V347.7L640,55.4M640,0,85.7,320V960L640,1280l554.3-320V320L640,0Z"/></g><g id="Line"><g class="cls-10"><rect class="cls-11" x="521.5" width="32" height="1280"/></g></g></svg>