<svg id="Layer_1" data-name="Layer 1" xmlns="http://www.w3.org/2000/svg" xmlns:xlink="http://www.w3.org/1999/xlink" viewBox="0 0 1280 1280"><defs><style>.cls-1{fill:none;}.cls-2{clip-path:url(#clip-path);}.cls-3{fill:#b29371;}.cls-4{fill:#59110d;}.cls-5{fill:#f0e4af;}.cls-6{fill:#832012;}.cls-7{fill:#c3ad6c;}.cls-8{fill:#5289cc;}.cls-9{fill:#17355c;}.cls-10{clip-path:url(#clip-path-2);}.cls-11{fill:#c2d8f2;}</style><clipPath id="clip-path"><polygon id="Mask" class="cls-1" points="1083.76 896.21 1083.76 383.79 640 127.59 196.24 383.79 196.24 896.21 640 1152.41 1083.76 896.21"/></clipPath><clipPath id="clip-path-2"><path class="cls-1" d="M640,1224.57,133.74,932.29V347.71L640,55.43l506.26,292.28V932.29ZM1066.26,886.1V393.9L640,147.8,213.74,393.9V886.1L640,1132.2Z"/></clipPath></defs><title>Sailing</title><g id="Inner"><g class="cls-2"><g id="Sailing"><path class="cls-3" d="M676.68,147.26l493.54,38q-20.19,262.41-40.4,524.83l-493.51-38Q656.5,409.67,676.68,147.26Z"/><path class="cls-4" d="M133.56,770l987,76L1095.3,1170.1,109,1094.21Z"/><path class="cls-5" d="M394,125.51,678.62,147.4q-20.21,262.43-40.4,524.83l-284.58-21.9Z"/><path class="cls-6" d="M143.85,632.53l987.6,76q-5.61,69.26-11.21,138.52l-986.5-75.91Z"/><path class="cls-7" d="M186.33,109.54,395.24,125.6Q375,388,354.84,650.43L146,634.34Z"/></g></g></g><g id="Outer"><path class="cls-8" d="M1165.12,943.18V336.82L640,33.65,114.88,336.82V943.18L640,1246.35ZM213.74,393.9,640,147.8l426.26,246.1V886.1L640,1132.2,213.74,886.1Z"/><path class="cls-9" d="M640,55.43l506.26,292.28V932.29L640,1224.57,133.74,932.29V347.71L640,55.43M640,0,85.74,320V960L640,1280l554.26-320V320L640,0Z"/></g><g id="Line"><g class="cls-10"><rect class="cls-11" x="521.53" width="32" height="1280"/></g></g></svg>