<svg id="Layer_1" data-name="Layer 1" xmlns="http://www.w3.org/2000/svg" xmlns:xlink="http://www.w3.org/1999/xlink" viewBox="0 0 1280 1280"><defs><style>.cls-1{fill:none;}.cls-2{clip-path:url(#clip-path);}.cls-3{fill:#140602;}.cls-4{fill:#3b1209;}.cls-5{fill:#87430c;}.cls-6{fill:#c5c3a8;}.cls-7{fill:#524f48;}.cls-8{fill:#5289cc;}.cls-9{fill:#17355c;}.cls-10{clip-path:url(#clip-path-2);}.cls-11{fill:#c2d8f2;}</style><clipPath id="clip-path"><polygon id="Mask" class="cls-1" points="1083.76 896.21 1083.76 383.79 640 127.59 196.24 383.79 196.24 896.21 640 1152.41 1083.76 896.21"/></clipPath><clipPath id="clip-path-2"><path class="cls-1" d="M640,1224.57,133.74,932.29V347.71L640,55.43l506.26,292.28V932.29ZM1066.26,886.1V393.9L640,147.8,213.74,393.9V886.1L640,1132.2Z"/></clipPath></defs><title>Writing</title><g id="Inner"><g class="cls-2"><g id="Writing"><path class="cls-3" d="M144.74,491.07V146.34h990.52V491.07Z"/><path class="cls-3" d="M144.74,1025.54V680.81h990.52v344.73Z"/><path class="cls-4" d="M145.24,489.74h989.52l.06,192.4H145.18Z"/><path class="cls-5" d="M145.29,1024.41h989.42q.13,54.33.26,108.66H145Q145.15,1078.74,145.29,1024.41Z"/><path class="cls-6" d="M719.93,19.23,883.1,182.57l-700.82,700L19.16,719.27Z"/><path class="cls-7" d="M641.93-58.86l78.62,78.72-700.82,700-78.56-78.67Z"/></g></g></g><g id="Outer"><path class="cls-8" d="M1165.12,943.18V336.82L640,33.65,114.88,336.82V943.18L640,1246.35ZM213.74,393.9,640,147.8l426.26,246.1V886.1L640,1132.2,213.74,886.1Z"/><path class="cls-9" d="M640,55.43l506.26,292.28V932.29L640,1224.57,133.74,932.29V347.71L640,55.43M640,0,85.74,320V960L640,1280l554.26-320V320L640,0Z"/></g><g id="Line"><g class="cls-10"><rect class="cls-11" x="521.53" width="32" height="1280"/></g></g></svg>