<svg id="Layer_1" data-name="Layer 1" xmlns="http://www.w3.org/2000/svg" xmlns:xlink="http://www.w3.org/1999/xlink" viewBox="0 0 1280 1280"><defs><style>.cls-1{fill:none;}.cls-2{clip-path:url(#clip-path);}.cls-3{fill:#f9faf7;}.cls-4{fill:#9e8962;}.cls-5{fill:#c3b291;}.cls-6{fill:#544d49;}.cls-7{fill:#5289cc;}.cls-8{fill:#17355c;}.cls-9{clip-path:url(#clip-path-2);}.cls-10{fill:#c2d8f2;}</style><clipPath id="clip-path"><polygon id="Mask" class="cls-1" points="1083.76 896.21 1083.76 383.79 640 127.59 196.24 383.79 196.24 896.21 640 1152.41 1083.76 896.21"/></clipPath><clipPath id="clip-path-2"><path class="cls-1" d="M640,1224.57,133.74,932.29V347.71L640,55.43l506.26,292.28V932.29ZM1066.26,886.1V393.9L640,147.8,213.74,393.9V886.1L640,1132.2Z"/></clipPath></defs><title>Animal Husbandry</title><g id="Inner"><g class="cls-2"><g id="Animal_Husbandry" data-name="Animal Husbandry"><path class="cls-3" d="M174.15,50.12l986.43,90q-10.95,118.73-21.89,237.45l-986-90Q163.42,168.86,174.15,50.12Z"/><path class="cls-4" d="M142.09,403.77l986,90q-6.55,70.8-13.12,141.61l-985.62-90Q135.73,474.6,142.09,403.77Z"/><path class="cls-5" d="M153,286.74l985.62,89.95-10.68,117.7-985.74-90Z"/><path class="cls-6" d="M129.35,544.79l985.74,90c-3.16,34.68-6.33,69.37-9.55,104.66l-985.74-90Z"/><path class="cls-3" d="M115.08,621.79,1099.8,514.68q12.79,118.53,25.58,237.08L141.08,858.82Q128.09,740.3,115.08,621.79Z"/><path class="cls-4" d="M153.7,974.79,1138,867.72q7.59,70.69,15.19,141.4l-983.92,107Q161.49,1045.46,153.7,974.79Z"/><path class="cls-5" d="M141.18,857.92l983.91-107,12.84,117.48-984,107Q147.53,916.67,141.18,857.92Z"/><path class="cls-6" d="M169.14,1115.54l984-107c3.77,34.62,7.54,69.25,11.37,104.48l-984,107Z"/></g></g></g><g id="Outer"><path class="cls-7" d="M1165.12,943.18V336.82L640,33.65,114.88,336.82V943.18L640,1246.35ZM213.74,393.9,640,147.8l426.26,246.1V886.1L640,1132.2,213.74,886.1Z"/><path class="cls-8" d="M640,55.43l506.26,292.28V932.29L640,1224.57,133.74,932.29V347.71L640,55.43M640,0,85.74,320V960L640,1280l554.26-320V320L640,0Z"/></g><g id="Line"><g class="cls-9"><rect class="cls-10" x="521.53" width="32" height="1280"/></g></g></svg>