<svg id="Layer_1" data-name="Layer 1" xmlns="http://www.w3.org/2000/svg" xmlns:xlink="http://www.w3.org/1999/xlink" viewBox="0 0 1280 1280"><defs><style>.cls-1{fill:none;}.cls-2{clip-path:url(#clip-path);}.cls-3{fill:#6b786f;}.cls-4{fill:#a0ada4;}.cls-5{fill:#101713;}.cls-6{fill:#5289cc;}.cls-7{fill:#17355c;}.cls-8{clip-path:url(#clip-path-2);}.cls-9{fill:#c2d8f2;}</style><clipPath id="clip-path"><polygon id="Mask" class="cls-1" points="1083.76 896.21 1083.76 383.79 640 127.59 196.24 383.79 196.24 896.21 640 1152.41 1083.76 896.21"/></clipPath><clipPath id="clip-path-2"><path class="cls-1" d="M640,1224.57,133.74,932.29V347.71L640,55.43l506.26,292.28V932.29ZM1066.26,886.1V393.9L640,147.8,213.74,393.9V886.1L640,1132.2Z"/></clipPath></defs><title>Engineering</title><g id="Inner"><g class="cls-2"><g id="Engineering"><path class="cls-3" d="M125.57,835.14,20.49,736,699.92,16,805,115.13Z"/><path class="cls-4" d="M125.11,834.71l679.44-720L884,189.3,204.2,909.72Z"/><path class="cls-4" d="M-58.33,661.61q339.72-360,679.43-720L700.57,16.2,20.76,736.62Z"/><path class="cls-3" d="M533.34,1219.93l-167.55-158.1,679.44-720,167.54,158.1Q873.07,859.93,533.34,1219.93Z"/><path class="cls-4" d="M532.61,1219.24q339.71-360,679.43-720l126.6,119.08L658.82,1338.72Z"/><path class="cls-4" d="M240.12,943.24l679.43-720,126.6,119.08L366.33,1062.72Z"/><path class="cls-5" d="M203.91,909.45,883.73,189l36.14,34.67L240.62,943.52Z"/></g></g></g><g id="Outer"><path class="cls-6" d="M1165.12,943.18V336.82L640,33.65,114.88,336.82V943.18L640,1246.35ZM213.74,393.9,640,147.8l426.26,246.1V886.1L640,1132.2,213.74,886.1Z"/><path class="cls-7" d="M640,55.43l506.26,292.28V932.29L640,1224.57,133.74,932.29V347.71L640,55.43M640,0,85.74,320V960L640,1280l554.26-320V320L640,0Z"/></g><g id="Line"><g class="cls-8"><rect class="cls-9" x="521.53" width="32" height="1280"/></g></g></svg>