<svg id="Layer_1" data-name="Layer 1" xmlns="http://www.w3.org/2000/svg" xmlns:xlink="http://www.w3.org/1999/xlink" viewBox="0 0 1280 1280"><defs><style>.cls-1{fill:none;}.cls-2{clip-path:url(#clip-path);}.cls-3{fill:#2c8208;}.cls-4{fill:#481f16;}.cls-5{fill:#772e1b;}.cls-6{fill:#124309;}.cls-7{fill:#3fa211;}.cls-8{fill:#5289cc;}.cls-9{fill:#17355c;}.cls-10{clip-path:url(#clip-path-2);}.cls-11{fill:#c2d8f2;}</style><clipPath id="clip-path"><polygon id="Mask" class="cls-1" points="1083.76 896.21 1083.76 383.79 640 127.59 196.24 383.79 196.24 896.21 640 1152.41 1083.76 896.21"/></clipPath><clipPath id="clip-path-2"><path class="cls-1" d="M640,1224.57,133.74,932.29V347.71L640,55.43l506.26,292.28V932.29ZM1066.26,886.1V393.9L640,147.8,213.74,393.9V886.1L640,1132.2Z"/></clipPath></defs><title>Illigation</title><g id="Inner"><g class="cls-2"><g id="Illigation"><ellipse class="cls-3" cx="645.52" cy="399.13" rx="171.24" ry="700.2" transform="translate(231.7 1035.34) rotate(-88.69)"/><path class="cls-4" d="M138.5,912.88l990,22.68-4.78,209-990-22.68Z"/><ellipse class="cls-5" cx="635.82" cy="822.5" rx="145.34" ry="700.21" transform="translate(-201.03 1439.32) rotate(-88.69)"/><path class="cls-6" d="M147.78,507.74l990,22.68q-2.25,100.86-4.49,201.7L143,709.43Z"/><path class="cls-7" d="M156.16,135.66l990.27,22.69-3.18,132-990-22.68Z"/></g></g></g><g id="Outer"><path class="cls-8" d="M1165.12,943.18V336.82L640,33.65,114.88,336.82V943.18L640,1246.35ZM213.74,393.9,640,147.8l426.26,246.1V886.1L640,1132.2,213.74,886.1Z"/><path class="cls-9" d="M640,55.43l506.26,292.28V932.29L640,1224.57,133.74,932.29V347.71L640,55.43M640,0,85.74,320V960L640,1280l554.26-320V320L640,0Z"/></g><g id="Line"><g class="cls-10"><rect class="cls-11" x="521.53" width="32" height="1280"/></g></g></svg>