<svg id="Layer_1" data-name="Layer 1" xmlns="http://www.w3.org/2000/svg" xmlns:xlink="http://www.w3.org/1999/xlink" viewBox="0 0 1280 1280"><defs><style>.cls-1{fill:none;}.cls-2{clip-path:url(#clip-path);}.cls-3{fill:#52220a;}.cls-4{fill:#351908;}.cls-5{fill:#863916;}.cls-6{fill:#b45727;}.cls-7{fill:#1b0706;}.cls-8{fill:#5289cc;}.cls-9{fill:#17355c;}.cls-10{clip-path:url(#clip-path-2);}.cls-11{fill:#c2d8f2;}</style><clipPath id="clip-path"><polygon id="Mask" class="cls-1" points="1083.76 896.21 1083.76 383.79 640 127.59 196.24 383.79 196.24 896.21 640 1152.41 1083.76 896.21"/></clipPath><clipPath id="clip-path-2"><path class="cls-1" d="M640,1224.57,133.74,932.29V347.71L640,55.43l506.26,292.28V932.29ZM1066.26,886.1V393.9L640,147.8,213.74,393.9V886.1L640,1132.2Z"/></clipPath></defs><title>Pottery</title><g id="Inner"><g class="cls-2"><g id="Pottery"><path class="cls-3" d="M878.26,161.92l284.84,18.15-62.6,982.53-284.84-18.15Q847,653.19,878.26,161.92Z"/><path class="cls-4" d="M772,155.15l-62.61,982.53-285.46-18.17L486.53,137Z"/><ellipse class="cls-5" cx="285.92" cy="617.44" rx="696.18" ry="195.17" transform="translate(-348.45 863.52) rotate(-86.35)"/><path class="cls-6" d="M892.76,162.83q-31.31,491.28-62.6,982.56l-131.62-8.1,62.64-983.13Z"/><path class="cls-7" d="M500.33,137.3l-62.67,983.61-62.38-4L438,133.33Z"/></g></g></g><g id="Outer"><path class="cls-8" d="M1165.12,943.18V336.82L640,33.65,114.88,336.82V943.18L640,1246.35ZM213.74,393.9,640,147.8l426.26,246.1V886.1L640,1132.2,213.74,886.1Z"/><path class="cls-9" d="M640,55.43l506.26,292.28V932.29L640,1224.57,133.74,932.29V347.71L640,55.43M640,0,85.74,320V960L640,1280l554.26-320V320L640,0Z"/></g><g id="Line"><g class="cls-10"><rect class="cls-11" x="521.53" width="32" height="1280"/></g></g></svg>