<svg id="Layer_1" data-name="Layer 1" xmlns="http://www.w3.org/2000/svg" xmlns:xlink="http://www.w3.org/1999/xlink" viewBox="0 0 1280 1280"><defs><style>.cls-1{fill:none;}.cls-2{clip-path:url(#clip-path);}.cls-3{fill:#e6ac70;}.cls-4{fill:#987048;}.cls-5{fill:#bd864d;}.cls-6{fill:#5289cc;}.cls-7{fill:#17355c;}.cls-8{clip-path:url(#clip-path-2);}.cls-9{fill:#c2d8f2;}</style><clipPath id="clip-path"><polygon id="Mask" class="cls-1" points="1083.76 896.21 1083.76 383.79 640 127.59 196.24 383.79 196.24 896.21 640 1152.41 1083.76 896.21"/></clipPath><clipPath id="clip-path-2"><path class="cls-1" d="M640,1224.57,133.74,932.29V347.71L640,55.43l506.26,292.28V932.29ZM1066.26,886.1V393.9L640,147.8,213.74,393.9V886.1L640,1132.2Z"/></clipPath></defs><title>Shipbuilding</title><g id="Inner"><g class="cls-2"><g id="Shipbuilding"><path class="cls-3" d="M87.88,397.38,1060,207.2l78.15,399.88L166.18,797.22Z"/><path class="cls-4" d="M165.9,795.77l972-190.14,36,184.42L202.07,980.15Q184,888,165.9,795.77Z"/><path class="cls-5" d="M201.86,979.09,1173.62,789q23.52,120.09,47.06,240.17l-971.9,190.13Z"/><path class="cls-3" d="M-2.52,313.86l920.45-366,92.28,232.31L89.9,546.1Q43.69,430-2.52,313.86Z"/><path class="cls-4" d="M89.61,545.37l920.3-365.89,24.57,62.07L114.36,607.36Z"/></g></g></g><g id="Outer"><path class="cls-6" d="M1165.12,943.18V336.82L640,33.65,114.88,336.82V943.18L640,1246.35ZM213.74,393.9,640,147.8l426.26,246.1V886.1L640,1132.2,213.74,886.1Z"/><path class="cls-7" d="M640,55.43l506.26,292.28V932.29L640,1224.57,133.74,932.29V347.71L640,55.43M640,0,85.74,320V960L640,1280l554.26-320V320L640,0Z"/></g><g id="Line"><g class="cls-8"><rect class="cls-9" x="521.53" width="32" height="1280"/></g></g></svg>