<svg id="Layer_1" data-name="Layer 1" xmlns="http://www.w3.org/2000/svg" xmlns:xlink="http://www.w3.org/1999/xlink" viewBox="0 0 1280 1280"><defs><style>.cls-1{fill:none;}.cls-2{clip-path:url(#clip-path);}.cls-3{fill:#d1cac1;}.cls-4{fill:#f6e667;}.cls-5{fill:#faab26;}.cls-6{fill:#9a9187;}.cls-7{fill:#5289cc;}.cls-8{fill:#17355c;}.cls-9{clip-path:url(#clip-path-2);}.cls-10{fill:#c2d8f2;}</style><clipPath id="clip-path"><polygon id="Mask" class="cls-1" points="1083.76 896.21 1083.76 383.79 640 127.59 196.24 383.79 196.24 896.21 640 1152.41 1083.76 896.21"/></clipPath><clipPath id="clip-path-2"><path class="cls-1" d="M640,1224.57,133.74,932.29V347.71L640,55.43l506.26,292.28V932.29ZM1066.26,886.1V393.9L640,147.8,213.74,393.9V886.1L640,1132.2Z"/></clipPath></defs><title>siegeTactics</title><g id="Inner"><g class="cls-2"><g id="Siege_Tactics" data-name="Siege Tactics"><path class="cls-3" d="M288.05,38.86l811.27,215.55L845.19,1211.78,33.47,996.11Z"/><path class="cls-4" d="M204,357.45l810.88,215.44q-5.52,20.77-11,41.56L192.92,399Q198.44,378.22,204,357.45Z"/><path class="cls-4" d="M171.25,480.59,982.13,696q-5.52,20.78-11,41.55L160.2,522.14Q165.72,501.37,171.25,480.59Z"/><path class="cls-5" d="M193,398.69l810.9,215.45L982,696.32,171.25,480.92Z"/><path class="cls-6" d="M895.54,1147.69,848.06,158.3l541.43-26q23.73,494.45,47.49,989.39Z"/></g></g></g><g id="Outer"><path class="cls-7" d="M1165.12,943.18V336.82L640,33.65,114.88,336.82V943.18L640,1246.35ZM213.74,393.9,640,147.8l426.26,246.1V886.1L640,1132.2,213.74,886.1Z"/><path class="cls-8" d="M640,55.43l506.26,292.28V932.29L640,1224.57,133.74,932.29V347.71L640,55.43M640,0,85.74,320V960L640,1280l554.26-320V320L640,0Z"/></g><g id="Line"><g class="cls-9"><rect class="cls-10" x="521.53" width="32" height="1280"/></g></g></svg>