<svg xmlns="http://www.w3.org/2000/svg" xmlns:xlink="http://www.w3.org/1999/xlink" viewBox="0 0 1280 1280"><defs><style>.cls-1{fill:none;}.cls-2{clip-path:url(#clip-path);}.cls-3{fill:#71cc50;}.cls-4{fill:#8acc52;}.cls-5{fill:#99cc52;}.cls-6{fill:#ccbd52;}.cls-7{fill:#ccab52;}.cls-8{fill:#cc9f52;}.cls-9{fill:#cc5151;}.cls-10{fill:#cc5273;}.cls-11{fill:#ae51cc;}.cls-12{fill:#8a51cc;}.cls-13{fill:#5268cc;}.cls-14{fill:#517ecc;}.cls-15{fill:#5289cc;}.cls-16{fill:#52a1cc;}.cls-17{fill:#51ccc4;}.cls-18{fill:#bb933e;}.cls-19{fill:#5c4618;}</style><clipPath id="clip-path"><polygon class="cls-1" points="85.74 320 85.74 960 640 1280 1194.26 960 1194.26 320 640 0 85.74 320"/></clipPath></defs><title>index</title><g id="Trimmed"><g class="cls-2"><path class="cls-3" d="M-.88,856.64a100.5,100.5,0,0,1,3.62-17.82q1.38-4.64,3.24-9.64t4.29-10.09A210.83,210.83,0,0,1,22,797.15c2.33-3.82,4.81-7.87,7.52-11.83s5.59-8.09,8.65-12.29,6.32-8.51,9.75-12.93,7.09-8.78,10.9-13.33q11.46-13.57,25.05-28.3,13.68-14.41,29.41-29.87,7.86-7.73,16.21-15.67c5.57-5.28,11.35-10.49,17.26-15.85,94.08-86,231.05-185.24,372.4-272.19,17.67-10.83,35.31-21.65,53-32s35.36-20.67,52.89-30.69c35.18-19.82,69.84-38.83,103.67-56.31,67.66-35.1,131.17-65.17,188.21-88.4a716.37,716.37,0,0,1,82.68-27.29l9.82-2.51q4.9-1.14,9.74-2.24c6.41-1.5,12.82-2.75,19.09-4,3.12-.62,6.27-1.15,9.39-1.67l9.25-1.5q4.63-.65,9.17-1.25l4.52-.59,4.53-.49c12-1.36,23.71-2.06,35.09-2.34a325.26,325.26,0,0,1,33.39.87,259.79,259.79,0,0,1,31.75,4.38c5.15,1,10.26,2.29,15.31,3.77l3.78,1.15,1.87.58,1.89.65c2.5.86,5,1.78,7.52,2.87a650.84,650.84,0,0,1,45.57,112.34c-38.87,8.38-119.95,36.86-238.13,85.79-116.8,48.2-270.7,116.86-423.27,189C437.53,606.9,286.44,682.29,178.77,740.72,70,799.59,4.71,841.52-.88,856.64Z"/><path class="cls-4" d="M21.72,997c2.39-7.7,5-15.53,8-23.55q2.25-6,4.7-12.3t5.27-12.67c3.67-8.72,7.82-17.57,12.37-26.93,2.29-4.65,4.64-9.52,7.18-14.31s5.18-9.75,8-14.79,5.64-10.2,8.64-15.46,6.19-10.51,9.47-15.93q9.85-16.21,21.22-33.73Q118,810.08,131,791.6q6.51-9.24,13.39-18.76c4.6-6.33,9.39-12.63,14.27-19.08C236,650.48,349.6,526.83,471.18,413.57c15.18-14.1,30.35-28.18,45.66-41.87s30.6-27.22,45.83-40.48c30.6-26.35,60.85-51.76,90.58-75.45,59.43-47.52,115.68-89,166.56-122a678.49,678.49,0,0,1,74.77-41.33q4.53-2.11,9-4.16t9-3.9c5.88-2.58,11.82-4.93,17.63-7.21C933,76,936,75,938.88,73.9s5.77-2.09,8.62-3.1,5.76-1.93,8.61-2.87l4.24-1.39,4.28-1.3c11.27-3.5,22.51-6.39,33.54-8.91s22-4.52,32.93-6.11,21.8-2.78,32.85-3.47c5.5-.36,11-.6,16.69-.68l4.23,0,2.11,0,2.16,0c2.86,0,5.74.1,8.74.28C1128,70.44,1156,100,1180.35,132.81c-49.75,27.78-124.84,73-232,145.08C842.84,348.6,705.27,446.21,570,546.79s-268.22,203.86-363.87,283C108.82,910.06,48.85,966,21.72,997Z"/><path class="cls-5" d="M59.91,1088.39c2.28-8.86,4.75-17.85,7.52-27q2.07-6.86,4.3-14T76.49,1033c3.25-9.82,6.92-19.78,10.87-30.23,2-5.2,4-10.6,6.18-15.94S98,976,100.35,970.43s4.79-11.29,7.32-17.11,5.24-11.62,8-17.6q8.33-17.91,17.79-37.16,9.66-19,20.52-39.32,5.43-10.15,11.16-20.62c3.83-7,7.85-13.91,11.93-21,64.47-113.52,160-250.72,265.24-379.4,13.14-16,26.27-32,39.61-47.62s26.65-31.1,40-46.29c26.79-30.23,53.37-59.48,79.67-86.9C654.07,202.42,704.28,154,750,115.5a605.88,605.88,0,0,1,67.79-48.93q4.13-2.53,8.19-5l8.19-4.7c5.37-3.09,10.82-6,16.14-8.71,2.64-1.39,5.33-2.71,8-4s5.29-2.55,7.9-3.78,5.3-2.38,7.91-3.54l3.89-1.7,3.93-1.62c10.35-4.33,20.7-8,30.85-11.26s20.28-6,30.39-8.28,20.18-4.22,30.5-5.75c5.14-.77,10.35-1.45,15.67-2l4-.42,2-.2,2.06-.18c2.72-.24,5.47-.46,8.35-.61,35.11,14.65,69.53,35.31,101.41,60.49-45.77,34.44-113.8,88.87-210.29,174.56C801.93,323.9,678.54,439.21,558,557S319.77,794.74,234.54,886.7C147.61,980.18,93.15,1045.49,59.91,1088.39Z"/><path class="cls-6" d="M399.47,1293.19a48.15,48.15,0,0,1-12.94-12,96.8,96.8,0,0,1-5.8-8.54q-2.72-4.65-5.31-10.11a190,190,0,0,1-9.56-24.77c-1.45-4.61-3-9.48-4.26-14.54s-2.57-10.34-3.79-15.84-2.4-11.23-3.55-17.16-2.08-12-3.07-18.35c-1.92-12.62-3.68-26-5.27-40.18q-2.1-21.12-3.7-44.31-.8-11.57-1.48-23.62c-.43-8-.68-16.16-1-24.45-4.91-132.78,4.94-300.73,25.61-465.06,2.63-20.52,5.24-41,8.22-61.33s6-40.5,9.15-60.46c6.53-39.89,13.38-78.93,21-116.35,15-74.87,31.66-143.52,50.16-200.25,9.58-28.33,20.4-53.59,32.26-75.19q2.24-4.05,4.45-7.93t4.63-7.57c3-4.93,6.25-9.62,9.43-14.06,1.56-2.23,3.21-4.38,4.86-6.48s3.27-4.13,4.9-6.1,3.37-3.87,5.05-5.71c.84-.92,1.67-1.83,2.51-2.72l2.58-2.61A127.94,127.94,0,0,1,545.63-9.71a90.21,90.21,0,0,1,22.1-10.52,76.28,76.28,0,0,1,23-3.54,84.44,84.44,0,0,1,11.94.89c1,.15,2,.32,3.06.5l1.51.29,1.57.31c2.07.44,4.17,1,6.38,1.53,33.94-1.65,69.49-2.84,106.41-2.89-12-5.86-40.79,69.57-76.78,189.33-35.94,119.45-79.09,283.23-118.73,447.1-39.69,164-75.86,328.17-99.27,452.1C403.27,1189.94,392.46,1274.29,399.47,1293.19Z"/><path class="cls-7" d="M505.84,1299.73a31.8,31.8,0,0,1-15.32-4.38,51,51,0,0,1-7.38-5.18,77.16,77.16,0,0,1-7.14-7,121.44,121.44,0,0,1-13.87-19.41c-2.25-3.8-4.59-7.89-6.73-12.22s-4.31-8.92-6.45-13.77-4.26-9.94-6.38-15.28-4.06-10.89-6.08-16.68c-4-11.58-7.9-24.07-11.76-37.37-3.65-13.27-7.24-27.36-10.74-42.17q-2.64-11.1-5.2-22.74c-1.69-7.75-3.22-15.65-4.8-23.72-25.67-129.23-41.13-297.68-45.43-463-.49-20.67-1-41.32-1.12-61.83s-.18-40.9-.08-61.1c.43-40.38,1.27-80,3-118.15,3.42-76.34,9.18-147,18.39-207,4.93-30,11.51-57.35,19.66-81.46q1.55-4.53,3.09-8.89c1.1-2.91,2.21-5.77,3.31-8.57,2.17-5.61,4.58-11,7-16.18C413,51,414.26,48.5,415.54,46s2.54-4.88,3.81-7.24,2.68-4.65,4-6.88c.67-1.12,1.35-2.22,2-3.3s1.41-2.16,2.11-3.22A143.64,143.64,0,0,1,445.41,3.14a95.57,95.57,0,0,1,20.08-15.68A72.78,72.78,0,0,1,487.78-21a72.16,72.16,0,0,1,12.1-1.35c1.05,0,2.1,0,3.14,0l1.57,0,1.63.07c2.16.12,4.35.32,6.68.61,35.19-.57,71-1.17,107.36-1.51-25.81-19.4-68.35,318.64-97,654.06C494.51,967.41,479.65,1301.35,505.84,1299.73Z"/><path class="cls-8" d="M576.13,1300.22a30.62,30.62,0,0,1-15.68-1.06,43.85,43.85,0,0,1-7.89-3.54,63.92,63.92,0,0,1-7.87-5.45,103.78,103.78,0,0,1-15.9-16.37c-2.64-3.31-5.42-6.91-8-10.77s-5.26-8-7.91-12.4-5.33-9.06-8-14-5.22-10.06-7.85-15.45c-5.21-10.77-10.46-22.5-15.73-35.07q-7.61-18.86-15.22-40.16-3.81-10.63-7.61-21.82c-2.51-7.45-4.87-15.07-7.3-22.87C411.8,976.46,378.85,810,357.54,646.1c-2.62-20.5-5.25-41-7.49-61.35s-4.4-40.65-6.39-60.73c-3.75-40.18-7-79.61-9.23-117.73-4.55-76.26-6.29-147.15-3.78-208.41,1.58-30.67,5-59.07,10.25-84.66.66-3.2,1.33-6.36,2-9.46s1.5-6.18,2.26-9.19c1.48-6,3.21-11.89,4.95-17.54.84-2.82,1.79-5.6,2.75-8.33s1.91-5.4,2.88-8,2.07-5.2,3.11-7.72c.53-1.26,1.05-2.5,1.58-3.73s1.12-2.46,1.68-3.67a173.66,173.66,0,0,1,14.79-26.21A114.67,114.67,0,0,1,394.55-1a81.17,81.17,0,0,1,20.69-13.71,70.6,70.6,0,0,1,11.66-4.12c1-.26,2.06-.5,3.08-.72l1.54-.31c.54-.1,1.08-.2,1.62-.28,2.13-.36,4.31-.63,6.65-.81Q495-22.52,550.53-23.1C496.48-43,522.13,1332.46,576.13,1300.22Z"/><path class="cls-9" d="M1032.36,1254.78c-8.33-2.62-16.79-5.46-25.43-8.63q-6.46-2.39-13.21-5t-13.56-5.49c-9.3-3.77-18.74-8-28.66-12.6-4.94-2.31-10.09-4.65-15.16-7.2s-10.31-5.17-15.63-7.91-10.75-5.58-16.3-8.53-11-6.1-16.76-9.31q-17-9.66-35.38-20.69-18.07-11.19-37.4-23.77-9.64-6.29-19.59-12.92c-6.61-4.44-13.19-9.06-19.93-13.76C667.6,1044.57,538.92,936,420.84,819.31c-14.7-14.56-29.37-29.1-43.63-43.8s-28.37-29.37-42.19-44c-27.46-29.38-53.92-58.42-78.56-87C207,587.5,164,533.51,130.07,484.78A634.78,634.78,0,0,1,87.49,413.1c-1.46-2.9-2.88-5.77-4.29-8.61s-2.7-5.76-4-8.6c-2.66-5.64-5.09-11.34-7.44-16.92-1.19-2.76-2.31-5.58-3.4-8.37s-2.16-5.54-3.21-8.27-2-5.54-3-8.26L60.7,350c-.45-1.37-.91-2.74-1.36-4.11-3.64-10.82-6.7-21.63-9.4-32.24S45,292.43,43.17,281.85s-3.35-21.14-4.46-31.94c-.57-5.38-1-10.83-1.4-16.39-.08-1.4-.17-2.79-.25-4.18,0-.7-.08-1.39-.13-2.08s0-1.43-.08-2.15c-.13-2.83-.23-5.7-.24-8.7,18.53-33.31,43.15-65.13,71.92-93.89,31.12,49.86,79.41,122.88,156,226.68,75.05,102.12,178.38,235,284.79,365.67s215.65,259,299.92,352.33C934.74,1162.18,995.16,1222.06,1032.36,1254.78Z"/><path class="cls-10" d="M1191.1,1132.53q-12.94-.12-27-1.27c-4.68-.4-9.47-.85-14.4-1.35s-9.87-1.2-15-1.88c-10.3-1.31-20.9-3.12-32.08-5.13-5.57-1-11.35-2-17.12-3.28s-11.71-2.5-17.77-3.86-12.24-2.78-18.56-4.28-12.66-3.21-19.19-4.91q-19.54-5.19-40.63-11.28-20.88-6.33-43.23-13.61-11.16-3.65-22.68-7.51c-7.66-2.6-15.34-5.39-23.18-8.2C775.09,1021.68,622.49,952.08,477,871.83c-18.1-10-36.17-20.06-53.91-30.35s-35.3-20.59-52.58-30.93c-34.43-20.86-67.8-41.7-99.19-62.57C208.49,706.33,153,665.77,109.5,628.24c-21.61-19-39.93-38-54.9-56.64q-2.81-3.5-5.47-6.93T44,557.72c-3.35-4.54-6.46-9.19-9.39-13.7-1.47-2.24-2.87-4.53-4.23-6.8s-2.68-4.51-3.95-6.72S24,526,22.79,523.77c-.59-1.11-1.16-2.21-1.72-3.31s-1.1-2.24-1.63-3.35A210,210,0,0,1,8.81,491a193.84,193.84,0,0,1-6.54-25.5A214.29,214.29,0,0,1-.84,440.23c-.28-4.21-.45-8.47-.54-12.82,0-1.1,0-2.19-.05-3.27,0-.55,0-1.09,0-1.63s0-1.12,0-1.68c0-2.22,0-4.47,0-6.85,1-36.7,7.12-75.11,18.1-113.42,24.88,28.89,85.82,83.56,185,161.57,97.53,77,233.24,177.36,370.91,274.36,137.72,97.16,277.42,191,384.38,258.65C1065.58,1064.13,1141.51,1106.94,1191.1,1132.53Z"/><path class="cls-11" d="M1281.77,440.25a83.62,83.62,0,0,1-2.81,17.41q-1.21,4.54-3,9.45T1271.9,477a190.3,190.3,0,0,1-11.58,21.56c-2.32,3.76-4.81,7.75-7.53,11.64s-5.63,7.95-8.73,12.08-6.39,8.37-9.87,12.71-7.19,8.62-11.06,13.09q-11.66,13.32-25.52,27.76-13.93,14.13-30,29.25-8,7.56-16.55,15.32c-5.69,5.16-11.58,10.25-17.62,15.47-96.1,84-235.65,180-379,263.3-17.92,10.37-35.8,20.73-53.75,30.68s-35.81,19.75-53.56,29.31c-35.62,18.91-70.68,37-104.88,53.6-68.4,33.33-132.52,61.71-190,83.42a711.37,711.37,0,0,1-83.2,25.08q-5,1.14-9.86,2.24l-9.77,2c-6.43,1.33-12.86,2.4-19.15,3.43-3.12.53-6.27,1-9.39,1.4s-6.21.84-9.26,1.24-6.15.67-9.17,1l-4.52.46-4.52.36c-11.94,1-23.64,1.34-35,1.27a308.81,308.81,0,0,1-33.06-2,239.19,239.19,0,0,1-31.17-5.58q-7.55-1.87-14.9-4.41l-3.66-1.31-1.8-.67-1.83-.74c-2.41-1-4.81-2-7.23-3.22a683.47,683.47,0,0,1-41.3-113.79c36.46-5.66,117.72-31.55,236.68-77.16,117.65-45,273-109.68,427.25-178,154.06-68.2,307.05-140.07,416-196.15C1213.43,495.14,1279.4,454.47,1281.77,440.25Z"/><path class="cls-12" d="M1234.41,218.42c-2.44,8.61-5.07,17.34-8,26.25q-2.21,6.66-4.57,13.61t-5,14c-3.46,9.56-7.36,19.26-11.57,29.45-2.11,5.07-4.25,10.35-6.59,15.56s-4.74,10.58-7.25,16-5.11,11-7.81,16.71-5.59,11.35-8.53,17.2q-8.86,17.49-19,36.32-10.29,18.57-21.87,38.42-5.79,9.93-11.9,20.15c-4.09,6.8-8.37,13.58-12.7,20.51C1040.88,593.49,939.58,727,829.16,851c-13.79,15.44-27.56,30.85-41.52,45.88s-27.9,29.92-41.81,44.51c-28,29-55.71,57.07-83.07,83.29-54.65,52.58-106.68,98.65-153.9,135.26a622.16,622.16,0,0,1-69.78,46.29q-4.24,2.38-8.41,4.69t-8.41,4.43c-5.52,2.91-11.1,5.6-16.56,8.19-2.71,1.32-5.46,2.55-8.2,3.76s-5.43,2.4-8.1,3.56-5.43,2.23-8.1,3.31l-4,1.6-4,1.52c-10.6,4.06-21.21,7.49-31.62,10.53s-20.79,5.56-31.15,7.7-20.71,3.88-31.29,5.24c-5.27.7-10.61,1.28-16.06,1.77l-4.09.34-2,.17-2.11.14c-2.78.19-5.59.35-8.53.43-34-17.21-66.8-40.42-96.7-67.92,47.77-33,117.87-84.26,217.63-165.61,98.13-79.73,225.92-189.54,351.14-302.24S966.39,499.8,1055.16,411.22C1145.63,321.25,1202.16,258.19,1234.41,218.42Z"/><path class="cls-13" d="M838.39-19.55a39.61,39.61,0,0,1,14.17,9.19A74,74,0,0,1,859.11-3q3.1,4.11,6.14,9.07a161.84,161.84,0,0,1,11.44,23c1.79,4.36,3.66,9,5.3,13.82s3.3,9.92,4.9,15.24,3.18,10.86,4.72,16.63,2.89,11.72,4.3,17.9q4.14,18.54,7.9,39.51c2.3,13.9,4.47,28.56,6.51,43.89q1.53,11.49,3,23.48c.93,8,1.68,16.09,2.48,24.36,13.12,132.46,13.15,301.37,2.31,466.48-1.41,20.63-2.8,41.23-4.56,61.66S910,792.78,908,812.87C903.85,853,899.37,892.3,894.06,930c-10.49,75.47-22.87,144.83-37.8,202.62-7.79,28.87-17,54.81-27.48,77.19q-2,4.19-3.95,8.22t-4.13,7.88c-2.71,5.14-5.63,10-8.53,14.7-1.41,2.33-2.93,4.6-4.44,6.8s-3,4.35-4.51,6.44-3.12,4.09-4.67,6l-2.33,2.88-2.42,2.78a126.25,126.25,0,0,1-20,18.6A86.77,86.77,0,0,1,752.39,1296a72,72,0,0,1-22.84,4.53,78,78,0,0,1-12-.56c-1-.13-2.07-.27-3.09-.44l-1.54-.26-1.6-.3c-2.1-.41-4.23-.9-6.48-1.47-34,1.17-69.27,2.26-105.63,2.71,23.88,21.35,96.69-306,156.14-638.85,29.73-166.12,56-332.6,71.83-458.07C843.05,77.4,848.47-7.45,838.39-19.55Z"/><path class="cls-14" d="M707.58-23.18a31,31,0,0,1,15.68,1.73,47,47,0,0,1,7.89,3.87A67.09,67.09,0,0,1,739-11.8a109.52,109.52,0,0,1,15.81,17c2.63,3.41,5.39,7.1,8,11.06s5.21,8.2,7.84,12.69,5.27,9.24,7.92,14.23,5.16,10.23,7.77,15.71c5.15,10.94,10.33,22.83,15.52,35.56q7.5,19.08,15,40.6,3.75,10.74,7.48,22c2.47,7.52,4.78,15.21,7.17,23.06C870,306,902,472.88,922.33,636.9c2.49,20.52,5,41,7.11,61.38s4.16,40.64,6,60.71C939,799.14,942,838.53,944,876.58c4.08,76.11,5.37,146.75,2.43,207.62-1.79,30.49-5.41,58.65-10.85,84-.69,3.16-1.38,6.28-2.09,9.35s-1.54,6.1-2.32,9.08c-1.53,6-3.3,11.73-5.09,17.3-.86,2.78-1.83,5.52-2.81,8.2s-2,5.32-2.94,7.9-2.12,5.11-3.18,7.58c-.54,1.24-1.07,2.46-1.61,3.67s-1.14,2.41-1.71,3.59a166,166,0,0,1-15,25.6A109.7,109.7,0,0,1,881,1280.08,78.4,78.4,0,0,1,860.13,1293a69.42,69.42,0,0,1-11.71,3.69c-1,.23-2.06.43-3.09.61l-1.55.26-1.61.23c-2.14.28-4.33.47-6.66.58q-54.9,1.33-110.1,1.83C779.67,1327.18,761.39-48.6,707.58-23.18Z"/><path class="cls-15" d="M643.48-23.19a32.63,32.63,0,0,1,15.69.38,48.35,48.35,0,0,1,8.17,3,68.83,68.83,0,0,1,8.32,4.85A108.57,108.57,0,0,1,693,0c2.93,3.06,6,6.4,9,10s6,7.48,9,11.61,6.13,8.51,9.25,13.14,6.12,9.51,9.24,14.62c6.18,10.22,12.48,21.39,18.89,33.41q9.3,18,18.85,38.53,4.77,10.23,9.58,21c3.19,7.19,6.24,14.56,9.38,22.1,50.69,120.7,98.7,284.09,134.56,445.42,4.44,20.19,8.89,40.34,12.94,60.41s8,40,11.77,59.83c7.31,39.6,14.07,78.48,19.67,116.13,11.35,75.31,19.46,145.43,22.76,206.76a611.11,611.11,0,0,1-1.87,85.88c-.33,3.29-.67,6.55-1,9.76s-.85,6.41-1.29,9.55c-.83,6.26-1.92,12.4-3,18.35-.53,3-1.16,5.91-1.81,8.81s-1.3,5.74-2,8.54-1.47,5.58-2.22,8.29c-.37,1.36-.75,2.7-1.13,4s-.83,2.66-1.25,4a208.1,208.1,0,0,1-11.47,29.18A139.78,139.78,0,0,1,946,1263.54,95.84,95.84,0,0,1,927.74,1282a77.11,77.11,0,0,1-10.72,6.8c-1,.49-1.92,1-2.88,1.42l-1.45.67-1.52.64a65.86,65.86,0,0,1-6.32,2.28c-38,2.77-76.2,4.53-114,5.55,25.33-2.9,2.46-335.58-34.53-671.32C719.57,293.68,668.7-43.69,643.48-23.19Z"/><path class="cls-16" d="M509.41-22.57A56,56,0,0,1,526-20a86.47,86.47,0,0,1,9,3.29c3,1.34,6.17,2.89,9.4,4.68A161.63,161.63,0,0,1,564.71,1.4c3.51,2.7,7.23,5.61,10.84,8.77s7.36,6.53,11.17,10.12,7.71,7.4,11.69,11.42,7.87,8.29,11.94,12.73q12.1,13.37,25.08,29.16,12.66,15.83,26.06,33.91,6.69,9,13.53,18.59c4.54,6.37,9,12.94,13.56,19.66C762.08,253.05,842,403.5,909,554.77c8.34,18.92,16.67,37.8,24.59,56.67s15.72,37.67,23.29,56.3c14.92,37.36,29.13,74.06,42,109.77,25.82,71.4,47.39,138.14,63.1,197.74a710,710,0,0,1,16.42,85.58q.63,5.07,1.21,10.05t1,9.93c.64,6.54,1,13,1.39,19.4.2,3.16.3,6.33.39,9.47s.17,6.24.23,9.31,0,6.16,0,9.18c0,1.51,0,3,0,4.51s-.09,3-.15,4.5a341.39,341.39,0,0,1-2.76,34.44,257.18,257.18,0,0,1-6.13,31.73,188.3,188.3,0,0,1-9.9,28.76,135.36,135.36,0,0,1-6.66,13.17c-.63,1.06-1.26,2.12-1.89,3.16l-1,1.55c-.35.52-.69,1-1,1.55-1.36,2-2.79,4.07-4.39,6.07a894.42,894.42,0,0,1-117,27.62c1.72-28.46-15.76-112.83-48.57-236C850.62,927,802.81,766,751.43,605.2,700.15,444.64,645.29,284.36,600.9,167.74,556.38,50.58,522.31-22.91,509.41-22.57Z"/><path class="cls-17" d="M206.19,44.15C215,46.6,223.88,49.27,233,52.26q6.81,2.25,13.9,4.65t14.26,5.15c9.77,3.53,19.67,7.51,30.08,11.78,5.17,2.15,10.55,4.32,15.87,6.7s10.8,4.81,16.37,7.35,11.24,5.18,17,7.91,11.57,5.66,17.53,8.63q17.81,9,37,19.14,18.9,10.37,39.07,22,10.08,5.82,20.47,11.94c6.9,4.1,13.79,8.39,20.83,12.73C587.92,239.05,723,339.83,848,449.18c15.56,13.65,31.09,27.28,46.22,41.1s30.1,27.59,44.78,41.33c29.18,27.66,57.33,55,83.6,82,52.69,53.88,98.62,105,134.79,151.23A591.68,591.68,0,0,1,1202.9,833q2.34,4.14,4.59,8.21c1.46,2.75,2.9,5.49,4.31,8.19,2.84,5.37,5.45,10.82,8,16.13,1.27,2.63,2.47,5.32,3.64,8s2.32,5.28,3.44,7.88,2.15,5.29,3.19,7.88c.52,1.31,1,2.6,1.55,3.89s1,2.61,1.46,3.91c3.9,10.32,7.19,20.62,10.09,30.73s5.31,20.19,7.36,30.27,3.72,20.13,5.07,30.45c.68,5.13,1.27,10.34,1.78,15.67.12,1.34.25,2.68.37,4l.18,2,.15,2.06c.22,2.73.41,5.49.54,8.39-14.19,35.18-34.67,69.56-59.78,101.34-33.07-46.61-84.76-115.38-167-213.68C951.25,811.65,840.14,685.43,726,561.46S494.92,315.69,404.74,226.89C313.14,136.39,248.42,78.87,206.19,44.15Z"/><path class="cls-18" d="M640,184.75l394.26,227.63V867.62L640,1095.25,245.74,867.62V412.38L640,184.75M640,0,85.74,320V960L640,1280l554.26-320V320L640,0Z"/><path class="cls-19" d="M640,69.28l494.26,285.36V925.36L640,1210.72,145.74,925.36V354.64L640,69.28M640,0,85.74,320V960L640,1280l554.26-320V320L640,0Z"/></g></g></svg>