<svg id="Layer_1" data-name="Layer 1" xmlns="http://www.w3.org/2000/svg" xmlns:xlink="http://www.w3.org/1999/xlink" viewBox="0 0 1280 1280"><defs><style>.cls-1{fill:none;}.cls-2{clip-path:url(#clip-path);}.cls-3{fill:#c38d50;}.cls-4{fill:#794d20;}.cls-5{fill:#9f6e38;}.cls-6{fill:#8a51cc;}.cls-7{fill:#37175c;}.cls-8{clip-path:url(#clip-path-2);}.cls-9{fill:#d8c2f2;}</style><clipPath id="clip-path"><polygon id="Mask" class="cls-1" points="1083.76 896.21 1083.76 383.79 640 127.59 196.24 383.79 196.24 896.21 640 1152.41 1083.76 896.21"/></clipPath><clipPath id="clip-path-2"><path class="cls-1" d="M640,1224.57,133.74,932.29V347.71L640,55.43l506.26,292.28V932.29ZM1066.26,886.1V393.9L640,147.8,213.74,393.9V886.1L640,1132.2Z"/></clipPath></defs><title>craftsmanship</title><g id="Inner"><g class="cls-2"><g id="Craftsmanship"><path class="cls-3" d="M444,135.77,638.81-59.08l700.27,700.27Q1241.64,738.63,1144.23,836Z"/><path class="cls-4" d="M444.53,135.06l700.41,700.41-63.6,63.27L381.26,198.66Z"/><path class="cls-3" d="M386.2,193.4l700.41,700.4-446,446L-59.78,639.37Z"/><path class="cls-5" d="M736,543.24l145,145-446,445.93-144.95-145Z"/><path class="cls-5" d="M494,85.75,1194.31,786.1l-49.82,49.49-700-700Q469.23,110.67,494,85.75Z"/></g></g></g><g id="Outer"><path class="cls-6" d="M1165.12,943.18V336.82L640,33.65,114.88,336.82V943.18L640,1246.35ZM213.74,393.9,640,147.8l426.26,246.1V886.1L640,1132.2,213.74,886.1Z"/><path class="cls-7" d="M640,55.43l506.26,292.28V932.29L640,1224.57,133.74,932.29V347.71L640,55.43M640,0,85.74,320V960L640,1280l554.26-320V320L640,0Z"/></g><g id="Line"><g class="cls-8"><rect class="cls-9" x="316.43" width="32" height="1280"/></g></g></svg>