<svg id="Layer_1" data-name="Layer 1" xmlns="http://www.w3.org/2000/svg" xmlns:xlink="http://www.w3.org/1999/xlink" viewBox="0 0 1280 1280"><defs><style>.cls-1{fill:none;}.cls-2{clip-path:url(#clip-path);}.cls-3{fill:#9a9583;}.cls-4{fill:#120f09;}.cls-5{fill:#474c45;}.cls-6{fill:#8a51cc;}.cls-7{fill:#37175c;}.cls-8{clip-path:url(#clip-path-2);}.cls-9{fill:#d8c2f2;}</style><clipPath id="clip-path"><polygon id="Mask" class="cls-1" points="1083.76 896.21 1083.76 383.79 640 127.59 196.24 383.79 196.24 896.21 640 1152.41 1083.76 896.21"/></clipPath><clipPath id="clip-path-2"><path class="cls-1" d="M640,1224.57,133.74,932.29V347.71L640,55.43l506.26,292.28V932.29ZM1066.26,886.1V393.9L640,147.8,213.74,393.9V886.1L640,1132.2Z"/></clipPath></defs><title>defensiveTactics</title><g id="Inner"><g class="cls-2"><g id="Defensive_Tactics" data-name="Defensive Tactics"><path class="cls-3" d="M206.57,1189.5,126.3,514.22l983.6-116.93q40.15,337.74,80.27,675.28Z"/><path class="cls-4" d="M539.37,153.21q58.44,491.68,116.9,983.37l-97.52,11.59L441.85,164.8Z"/><path class="cls-3" d="M109.33,371.46,87.23,185.59l983.6-116.93q11.06,93,22.1,185.88Z"/><path class="cls-5" d="M109.23,370.7l983.61-116.93q8.6,72.78,17.18,145.57L126.66,516.24Z"/></g></g></g><g id="Outer"><path class="cls-6" d="M1165.12,943.18V336.82L640,33.65,114.88,336.82V943.18L640,1246.35ZM213.74,393.9,640,147.8l426.26,246.1V886.1L640,1132.2,213.74,886.1Z"/><path class="cls-7" d="M640,55.43l506.26,292.28V932.29L640,1224.57,133.74,932.29V347.71L640,55.43M640,0,85.74,320V960L640,1280l554.26-320V320L640,0Z"/></g><g id="Line"><g class="cls-8"><rect class="cls-9" x="316.43" width="32" height="1280"/></g></g></svg>