<svg id="Layer_1" data-name="Layer 1" xmlns="http://www.w3.org/2000/svg" xmlns:xlink="http://www.w3.org/1999/xlink" viewBox="0 0 1280 1280"><defs><style>.cls-1{fill:none;}.cls-2{clip-path:url(#clip-path);}.cls-3{fill:#674519;}.cls-4{fill:#d5c4ad;}.cls-5{fill:#314d63;}.cls-6{fill:#8d5e21;}.cls-7{fill:#8a51cc;}.cls-8{fill:#37175c;}.cls-9{clip-path:url(#clip-path-2);}.cls-10{fill:#d8c2f2;}</style><clipPath id="clip-path"><polygon id="Mask" class="cls-1" points="1083.76 896.21 1083.76 383.79 640 127.59 196.24 383.79 196.24 896.21 640 1152.41 1083.76 896.21"/></clipPath><clipPath id="clip-path-2"><path class="cls-1" d="M640,1224.57,133.74,932.29V347.71L640,55.43l506.26,292.28V932.29ZM1066.26,886.1V393.9L640,147.8,213.74,393.9V886.1L640,1132.2Z"/></clipPath></defs><title>foreignTrade</title><g id="Inner"><g class="cls-2"><g id="Foreign_Trade" data-name="Foreign Trade"><ellipse class="cls-3" cx="727.13" cy="855.23" rx="393.31" ry="564.1" transform="translate(-155.75 1548.52) rotate(-87.77)"/><path class="cls-4" d="M355.79,130.66l797.91,31.07-11,279.68L345,410.34Z"/><path class="cls-5" d="M345.32,409.25l797.15,31.05-6.4,164.18-797.14-31Z"/><path class="cls-6" d="M27.17,188.21,337,108.85Q471.6,634.07,606.18,1159.3l-310.11,79.43Q161.63,713.46,27.17,188.21Z"/></g></g></g><g id="Outer"><path class="cls-7" d="M1165.12,943.18V336.82L640,33.65,114.88,336.82V943.18L640,1246.35ZM213.74,393.9,640,147.8l426.26,246.1V886.1L640,1132.2,213.74,886.1Z"/><path class="cls-8" d="M640,55.43l506.26,292.28V932.29L640,1224.57,133.74,932.29V347.71L640,55.43M640,0,85.74,320V960L640,1280l554.26-320V320L640,0Z"/></g><g id="Line"><g class="cls-9"><rect class="cls-10" x="316.43" width="32" height="1280"/></g></g></svg>