<svg id="Layer_1" data-name="Layer 1" xmlns="http://www.w3.org/2000/svg" xmlns:xlink="http://www.w3.org/1999/xlink" viewBox="0 0 1280 1280"><defs><style>.cls-1{fill:none;}.cls-2{clip-path:url(#clip-path);}.cls-3{fill:#d7d4ae;}.cls-4{fill:#73705b;}.cls-5{fill:#a3a080;}.cls-6{fill:#8a51cc;}.cls-7{fill:#37175c;}.cls-8{clip-path:url(#clip-path-2);}.cls-9{fill:#d8c2f2;}</style><clipPath id="clip-path"><polygon id="Mask" class="cls-1" points="1083.76 896.21 1083.76 383.79 640 127.59 196.24 383.79 196.24 896.21 640 1152.41 1083.76 896.21"/></clipPath><clipPath id="clip-path-2"><path class="cls-1" d="M640,1224.57,133.74,932.29V347.71L640,55.43l506.26,292.28V932.29ZM1066.26,886.1V393.9L640,147.8,213.74,393.9V886.1L640,1132.2Z"/></clipPath></defs><title>gamesAndRecreation</title><g id="Inner"><g class="cls-2"><g id="Games_and_Recreation" data-name="Games and Recreation"><path class="cls-3" d="M224,353.43,348,63.68l910.54,389.94L1134.5,743.37Z"/><path class="cls-4" d="M224.4,352.39l910.54,389.94q-27.8,64.51-55.61,129L169.39,481.67Q196.9,417,224.4,352.39Z"/><path class="cls-3" d="M431.11,41.82,632.45-200.71,1394.58,432,1193.25,674.5Z"/><path class="cls-5" d="M431.84,40.94,1194,673.63q-45,54-90,107.89L342.35,149.25Z"/><path class="cls-3" d="M45.45,770.25,169.54,480.5l910.54,389.94L956,1160.19Z"/><path class="cls-4" d="M45.9,769.21l910.54,389.94q-27.8,64.51-55.61,129L-9.11,898.49Q18.4,833.86,45.9,769.21Z"/></g></g></g><g id="Outer"><path class="cls-6" d="M1165.12,943.18V336.82L640,33.65,114.88,336.82V943.18L640,1246.35ZM213.74,393.9,640,147.8l426.26,246.1V886.1L640,1132.2,213.74,886.1Z"/><path class="cls-7" d="M640,55.43l506.26,292.28V932.29L640,1224.57,133.74,932.29V347.71L640,55.43M640,0,85.74,320V960L640,1280l554.26-320V320L640,0Z"/></g><g id="Line"><g class="cls-8"><rect class="cls-9" x="316.43" width="32" height="1280"/></g></g></svg>