<svg id="Layer_1" data-name="Layer 1" xmlns="http://www.w3.org/2000/svg" xmlns:xlink="http://www.w3.org/1999/xlink" viewBox="0 0 1280 1280"><defs><style>.cls-1{fill:none;}.cls-2{clip-path:url(#clip-path);}.cls-3{fill:#a8120b;}.cls-4{fill:#b8b614;}.cls-5{fill:#c48720;}.cls-6{fill:#322758;}.cls-7{fill:#8a51cc;}.cls-8{fill:#37175c;}.cls-9{clip-path:url(#clip-path-2);}.cls-10{fill:#d8c2f2;}</style><clipPath id="clip-path"><polygon id="Mask" class="cls-1" points="1083.76 896.21 1083.76 383.79 640 127.59 196.24 383.79 196.24 896.21 640 1152.41 1083.76 896.21"/></clipPath><clipPath id="clip-path-2"><path class="cls-1" d="M640,1224.57,133.74,932.29V347.71L640,55.43l506.26,292.28V932.29ZM1066.26,886.1V393.9L640,147.8,213.74,393.9V886.1L640,1132.2Z"/></clipPath></defs><title>militaryTradition</title><g id="Inner"><g class="cls-2"><g id="Military_Tradition" data-name="Military Tradition"><path class="cls-3" d="M365.47,1155.76,278.6,174.81l635.2-56.24q43.41,490.2,86.86,980.94Z"/><ellipse class="cls-4" cx="639.63" cy="637.16" rx="450.91" ry="310.14" transform="translate(-53.71 58.91) rotate(-5.06)"/><path class="cls-5" d="M912.29,118.71,976.62,113q43.43,490.49,86.86,981l-64.32,5.69Q955.72,609.17,912.29,118.71Z"/><path class="cls-6" d="M976.3,113l64.32-5.69Q1084.32,600.65,1128,1094l-64.32,5.71Z"/><path class="cls-5" d="M367.71,1161.29l-64.33,5.7Q260,676.52,216.52,186.05l64.32-5.69Q324.28,670.83,367.71,1161.29Z"/><path class="cls-6" d="M303.7,1167l-64.32,5.69Q195.69,679.35,152,186l64.32-5.7Z"/></g></g></g><g id="Outer"><path class="cls-7" d="M1165.12,943.18V336.82L640,33.65,114.88,336.82V943.18L640,1246.35ZM213.74,393.9,640,147.8l426.26,246.1V886.1L640,1132.2,213.74,886.1Z"/><path class="cls-8" d="M640,55.43l506.26,292.28V932.29L640,1224.57,133.74,932.29V347.71L640,55.43M640,0,85.74,320V960L640,1280l554.26-320V320L640,0Z"/></g><g id="Line"><g class="cls-9"><rect class="cls-10" x="316.43" width="32" height="1280"/></g></g></svg>