<svg id="Layer_1" data-name="Layer 1" xmlns="http://www.w3.org/2000/svg" xmlns:xlink="http://www.w3.org/1999/xlink" viewBox="0 0 1280 1280"><defs><style>.cls-1{fill:none;}.cls-2{clip-path:url(#clip-path);}.cls-3{fill:#979780;}.cls-4{fill:#d3d3bb;}.cls-5{fill:#565752;}.cls-6{fill:#8a51cc;}.cls-7{fill:#37175c;}.cls-8{clip-path:url(#clip-path-2);}.cls-9{fill:#d8c2f2;}</style><clipPath id="clip-path"><polygon id="Mask" class="cls-1" points="1083.76 896.21 1083.76 383.79 640 127.59 196.24 383.79 196.24 896.21 640 1152.41 1083.76 896.21"/></clipPath><clipPath id="clip-path-2"><path class="cls-1" d="M640,1224.57,133.74,932.29V347.71L640,55.43l506.26,292.28V932.29ZM1066.26,886.1V393.9L640,147.8,213.74,393.9V886.1L640,1132.2Z"/></clipPath></defs><title>politicalPhilosophy</title><g id="Inner"><g class="cls-2"><g id="Political_Philosophy" data-name="Political Philosophy"><path class="cls-3" d="M121,170.24l989.33-48.8q19.37,393.11,38.74,786.21L159.78,956.44Z"/><rect class="cls-4" x="291.5" y="284.4" width="689.43" height="557.66" transform="translate(-26.98 32.03) rotate(-2.82)"/><path class="cls-5" d="M159.66,954.72l-4.45-90.2,989.32-48.8q2.23,45.12,4.45,90.2Z"/><path class="cls-4" d="M169.64,1157.11,159.62,954,1149,905.19q5,101.59,10,203.12Z"/></g></g></g><g id="Outer"><path class="cls-6" d="M1165.12,943.18V336.82L640,33.65,114.88,336.82V943.18L640,1246.35ZM213.74,393.9,640,147.8l426.26,246.1V886.1L640,1132.2,213.74,886.1Z"/><path class="cls-7" d="M640,55.43l506.26,292.28V932.29L640,1224.57,133.74,932.29V347.71L640,55.43M640,0,85.74,320V960L640,1280l554.26-320V320L640,0Z"/></g><g id="Line"><g class="cls-8"><rect class="cls-9" x="316.43" width="32" height="1280"/></g></g></svg>