<svg id="Floodplains" xmlns="http://www.w3.org/2000/svg" xmlns:xlink="http://www.w3.org/1999/xlink" viewBox="0 0 1108.5 1280"><defs><style>.cls-1,.cls-4,.cls-5,.cls-6,.cls-7{fill:none;}.cls-2{clip-path:url(#clip-path);}.cls-3{opacity:0.33;}.cls-4,.cls-5,.cls-6,.cls-7{stroke:#0097e9;stroke-miterlimit:10;}.cls-4,.cls-5{stroke-width:60px;}.cls-5,.cls-7{stroke-dasharray:102.95 102.95;}.cls-6,.cls-7{stroke-width:45px;}</style><clipPath id="clip-path"><polygon class="cls-1" points="34.9 340 34.9 940 554.6 1240 1074.2 940 1074.2 340 554.6 40 34.9 340"/></clipPath></defs><title>Floodplains</title><g id="Layer"><g class="cls-2"><g class="cls-3"><line class="cls-4" x1="370.7" y1="146.2" x2="398.8" y2="194.9"/><line class="cls-5" x1="450.3" y1="284.1" x2="836.4" y2="952.8"/><line class="cls-4" x1="862.1" y1="997.4" x2="890.2" y2="1046.1"/></g><g class="cls-3"><line class="cls-4" x1="294.8" y1="190.1" x2="322.9" y2="238.8"/><line class="cls-5" x1="374.4" y1="327.9" x2="760.5" y2="996.6"/><line class="cls-4" x1="786.2" y1="1041.2" x2="814.3" y2="1089.9"/></g><g class="cls-3"><line class="cls-4" x1="218.9" y1="233.9" x2="247" y2="282.6"/><line class="cls-5" x1="298.5" y1="371.8" x2="684.6" y2="1040.5"/><line class="cls-4" x1="710.3" y1="1085.1" x2="738.4" y2="1133.8"/></g><g class="cls-3"><line class="cls-6" x1="478.7" y1="1196" x2="506.8" y2="1147.3"/><line class="cls-7" x1="558.3" y1="1058.2" x2="944.4" y2="389.5"/><line class="cls-6" x1="970.1" y1="344.9" x2="998.3" y2="296.2"/></g><g class="cls-3"><line class="cls-6" x1="554.6" y1="1239.9" x2="582.8" y2="1191.2"/><line class="cls-7" x1="634.2" y1="1102" x2="1020.3" y2="433.3"/><line class="cls-6" x1="1046.1" y1="388.7" x2="1074.2" y2="340"/></g><g class="cls-3"><line class="cls-6" x1="630.5" y1="1283.7" x2="658.7" y2="1235"/><line class="cls-7" x1="710.1" y1="1145.8" x2="1096.2" y2="477.1"/><line class="cls-6" x1="1122" y1="432.5" x2="1150.1" y2="383.8"/></g><g class="cls-3"><line class="cls-6" x1="-41" y1="896.2" x2="-12.8" y2="847.5"/><line class="cls-7" x1="38.6" y1="758.3" x2="424.7" y2="89.6"/><line class="cls-6" x1="450.5" y1="45" x2="478.6" y2="-3.7"/></g><g class="cls-3"><line class="cls-6" x1="34.9" y1="940" x2="63.1" y2="891.3"/><line class="cls-7" x1="114.5" y1="802.1" x2="500.6" y2="133.4"/><line class="cls-6" x1="526.4" y1="88.8" x2="554.5" y2="40.1"/></g><g class="cls-3"><line class="cls-6" x1="110.9" y1="983.8" x2="139" y2="935.1"/><line class="cls-7" x1="190.5" y1="846" x2="576.5" y2="177.2"/><line class="cls-6" x1="602.3" y1="132.7" x2="630.4" y2="84"/></g></g></g></svg>