<svg id="Marsh" xmlns="http://www.w3.org/2000/svg" viewBox="0 0 1108.5 1280"><defs><style>.cls-1{fill:#009498;}</style></defs><title>Marsh</title><g id="Layer"><polygon class="cls-1" points="268.1 539.5 95.8 440 268.1 340.5 440.4 440 268.1 539.5"/><polygon class="cls-1" points="440.4 539.5 268.1 440 440.4 340.5 612.7 440 440.4 539.5"/><polygon class="cls-1" points="374.3 644.9 202 545.5 374.3 446 546.5 545.5 374.3 644.9"/><polygon class="cls-1" points="334.3 434 162 334.5 334.3 235.1 506.5 334.5 334.3 434"/><polygon class="cls-1" points="668.1 740.5 495.8 840 668.1 939.5 840.4 840 668.1 740.5"/><polygon class="cls-1" points="840.4 740.5 668.1 840 840.4 939.5 1012.7 840 840.4 740.5"/><polygon class="cls-1" points="774.3 635.1 602 734.5 774.3 834 946.5 734.5 774.3 635.1"/><polygon class="cls-1" points="734.3 846 562 945.5 734.3 1044.9 906.5 945.5 734.3 846"/></g></svg>