<svg id="Mountain" xmlns="http://www.w3.org/2000/svg" viewBox="0 0 1108.5 1280"><defs><style>.cls-1{opacity:0.8;}.cls-2{fill:#8c6239;}.cls-3{fill:#f2f2f2;}</style></defs><title>Mountain</title><g id="Layer" class="cls-1"><polygon class="cls-2" points="502.5 480.8 302.5 385.1 102.5 480.8 102.5 480.8 302.5 294.9 502.5 480.8 502.5 480.8"/><polygon class="cls-2" points="760 1057.5 541.6 949.7 323.3 1057.5 323.3 1057.5 541.6 848.2 760 1057.5 760 1057.5"/><polygon class="cls-3" points="1044.3 566.1 742.3 383.6 440.4 566.1 440.4 566.1 742.3 211.7 1044.3 566.1 1044.3 566.1"/><polygon class="cls-2" points="1044.3 566.1 742.3 412.3 440.4 566.1 440.4 566.1 742.3 267.4 1044.3 566.1 1044.3 566.1"/><polygon class="cls-3" points="693.8 637 460.8 363.4 60.6 833.1 460.8 591.3 630 693.6 693.8 637"/><polygon class="cls-2" points="693.8 686 460.8 480.8 60.6 833.1 460.8 651.7 630 728.5 693.8 686"/><polygon class="cls-3" points="1009.7 868.3 707.8 685.9 405.9 868.3 405.9 868.3 707.8 513.9 1009.7 868.3 1009.7 868.3"/><polygon class="cls-2" points="1009.7 868.3 707.8 734.4 405.9 868.3 405.9 868.3 707.8 608.3 1009.7 868.3 1009.7 868.3"/></g></svg>