<svg xmlns="http://www.w3.org/2000/svg" viewBox="0 0 1108.5 1280"><defs><style>.cls-1{opacity:0.7;}.cls-2{fill:#007437;}.cls-3{fill:#457400;}</style></defs><title>RainForest</title><g id="RainForest" class="cls-1"><g id="Layer"><polygon class="cls-2" points="497.2 475.5 404.8 315.4 497.2 155.3 589.7 315.4 497.2 475.5"/><polygon class="cls-3" points="541.9 526.6 541.9 341.8 702 249.3 702 434.2 541.9 526.6"/><polygon class="cls-3" points="497.2 548.1 404.8 388 497.2 227.9 589.7 388 497.2 548.1"/><polygon class="cls-3" points="448.3 526.6 288.2 434.2 288.2 249.3 448.3 341.8 448.3 526.6"/><polygon class="cls-2" points="798.7 810.3 706.3 650.2 798.7 490.1 891.2 650.2 798.7 810.3"/><polygon class="cls-3" points="843.3 861.5 843.3 676.6 1003.5 584.1 1003.5 769 843.3 861.5"/><polygon class="cls-3" points="798.7 882.9 706.3 722.8 798.7 562.7 891.2 722.8 798.7 882.9"/><polygon class="cls-3" points="749.8 861.5 589.7 769 589.7 584.1 749.8 676.6 749.8 861.5"/><polygon class="cls-2" points="320.1 938.9 227.7 778.8 320.1 618.7 412.5 778.8 320.1 938.9"/><polygon class="cls-3" points="364.7 990.1 364.7 805.2 524.8 712.7 524.8 897.6 364.7 990.1"/><polygon class="cls-3" points="320.1 1011.5 227.7 851.4 320.1 691.3 412.5 851.4 320.1 1011.5"/><polygon class="cls-3" points="271.2 990.1 111.1 897.6 111.1 712.7 271.2 805.2 271.2 990.1"/></g></g></svg>