<svg xmlns="http://www.w3.org/2000/svg" viewBox="0 0 1108.5 1280"><defs><style>.cls-1{opacity:0.7;}.cls-2{fill:#007437;}</style></defs><title>Woods</title><g id="Woods" class="cls-1"><g id="Layer"><polygon class="cls-2" points="595.5 483.7 503 323.6 595.5 163.5 687.9 323.6 595.5 483.7"/><polygon class="cls-2" points="668 556.3 575.6 396.2 668 236.1 760.5 396.2 668 556.3"/><polygon class="cls-2" points="595.5 556.3 503 396.2 595.5 236.1 687.9 396.2 595.5 556.3"/><polygon class="cls-2" points="522.9 556.3 430.4 396.2 522.9 236.1 615.3 396.2 522.9 556.3"/><polygon class="cls-2" points="294 827.4 201.5 667.3 294 507.2 386.4 667.3 294 827.4"/><polygon class="cls-2" points="366.6 900 274.1 739.9 366.6 579.8 459 739.9 366.6 900"/><polygon class="cls-2" points="294 900 201.5 739.9 294 579.8 386.4 739.9 294 900"/><polygon class="cls-2" points="221.4 900 128.9 739.9 221.4 579.8 313.8 739.9 221.4 900"/><polygon class="cls-2" points="780.3 951.2 687.9 791.1 780.3 631 872.8 791.1 780.3 951.2"/><polygon class="cls-2" points="852.9 1023.8 760.5 863.7 852.9 703.6 945.4 863.7 852.9 1023.8"/><polygon class="cls-2" points="780.3 1023.8 687.9 863.7 780.3 703.6 872.8 863.7 780.3 1023.8"/><polygon class="cls-2" points="707.8 1023.8 615.3 863.7 707.8 703.6 800.2 863.7 707.8 1023.8"/></g></g></svg>