<svg id="Layer_1" data-name="Layer 1" xmlns="http://www.w3.org/2000/svg" xmlns:xlink="http://www.w3.org/1999/xlink" viewBox="0 0 1280 1280"><defs><style>.cls-1{fill:none;}.cls-2{clip-path:url(#clip-path);}.cls-3{fill:#ac893a;}.cls-4{fill:#e6cf89;}.cls-5{fill:#d5aa47;}.cls-6{fill:#9c875f;}.cls-7{fill:#8a51cc;}.cls-8{fill:#37175c;}.cls-9{clip-path:url(#clip-path-2);}.cls-10{fill:#d8c2f2;}</style><clipPath id="clip-path"><polygon id="Mask" class="cls-1" points="1083.76 896.21 1083.76 383.79 640 127.59 196.24 383.79 196.24 896.21 640 1152.41 1083.76 896.21"/></clipPath><clipPath id="clip-path-2"><path class="cls-1" d="M640,1224.57,133.74,932.29V347.71L640,55.43l506.26,292.28V932.29ZM1066.26,886.1V393.9L640,147.8,213.74,393.9V886.1L640,1132.2Z"/></clipPath></defs><title>codeOfLaw</title><g id="Inner"><g class="cls-2"><g id="Code_of_Law" data-name="Code of Law"><path class="cls-3" d="M284.83,37.67l319.78,82q-123,479.75-246,959.49l-319.77-82Q161.85,517.42,284.83,37.67Z"/><path class="cls-4" d="M473.73,86.1l80.62,20.66q-123,479.75-246,959.5l-80.61-20.67Q350.74,565.85,473.73,86.1Z"/><path class="cls-5" d="M125.09,654.53l959.32,245.94-70,273.49L54.89,928Z"/><path class="cls-4" d="M602.48,120,1076.2,241.45Q996.94,550.77,917.67,860.09L443.82,738.6Z"/><path class="cls-3" d="M672.38,121.52,990.39,33q139.2,499.93,278.38,999.88l-318,88.53Q811.58,621.44,672.38,121.52Z"/><path class="cls-4" d="M730,105.47l72.45-20.18q139.18,499.93,278.38,999.88l-72.45,20.16Q869.22,605.4,730,105.47Z"/><path class="cls-6" d="M64.15,892l959.44,246c-8.9,34.74-17.81,69.47-27.57,107.55l-959.45-246Z"/></g></g></g><g id="Outer"><path class="cls-7" d="M1165.12,943.18V336.82L640,33.65,114.88,336.82V943.18L640,1246.35ZM213.74,393.9,640,147.8l426.26,246.1V886.1L640,1132.2,213.74,886.1Z"/><path class="cls-8" d="M640,55.43l506.26,292.28V932.29L640,1224.57,133.74,932.29V347.71L640,55.43M640,0,85.74,320V960L640,1280l554.26-320V320L640,0Z"/></g><g id="Line"><g class="cls-9"><rect class="cls-10" x="316.43" width="32" height="1280"/></g></g></svg>