<svg id="Layer_1" data-name="Layer 1" xmlns="http://www.w3.org/2000/svg" xmlns:xlink="http://www.w3.org/1999/xlink" viewBox="0 0 1280 1280"><defs><style>.cls-1{fill:none;}.cls-2{clip-path:url(#clip-path);}.cls-3{fill:#1d9836;}.cls-4{fill:#1f7b32;}.cls-5{fill:#8f0e0d;}.cls-6{fill:#430806;}.cls-7{fill:#8a51cc;}.cls-8{fill:#37175c;}.cls-9{clip-path:url(#clip-path-2);}.cls-10{fill:#d8c2f2;}</style><clipPath id="clip-path"><polygon id="Mask" class="cls-1" points="1083.8 896.2 1083.8 383.8 640 127.6 196.2 383.8 196.2 896.2 640 1152.4 1083.8 896.2"/></clipPath><clipPath id="clip-path-2"><path class="cls-1" d="M640,1224.6,133.7,932.3V347.7L640,55.4l506.3,292.3V932.3Zm426.3-338.5V393.9L640,147.8,213.7,393.9V886.1L640,1132.2Z"/></clipPath></defs><title>dramaAndPoetry</title><g id="Inner"><g class="cls-2"><g id="Drama_and_Poetry" data-name="Drama and Poetry"><path class="cls-3" d="M866-22.1l435.6,889.6-484.1,237L381.8,215Z"/><path class="cls-4" d="M546.2,59.7l694.5,881.5-103.5,81.5L442.7,141.3Z"/><path class="cls-5" d="M384,213.9l435.7,889.6L414.2,1302-21.4,412.5Z"/><path class="cls-6" d="M310.7,249.8l435.7,889.6L487.5,1266.1,51.9,376.5Z"/><path class="cls-5" d="M237.4,285.7,673,1175.3l-112.1,54.9L125.2,340.6Z"/></g></g></g><g id="Outer"><path class="cls-7" d="M1165.1,943.2V336.8L640,33.6,114.9,336.8V943.2L640,1246.4ZM213.7,393.9,640,147.8l426.3,246.1V886.1L640,1132.2,213.7,886.1Z"/><path class="cls-8" d="M640,55.4l506.3,292.3V932.3L640,1224.6,133.7,932.3V347.7L640,55.4M640,0,85.7,320V960L640,1280l554.3-320V320L640,0Z"/></g><g id="Line"><g class="cls-9"><rect class="cls-10" x="316.4" width="32" height="1280"/></g></g></svg>