<svg id="Layer_1" data-name="Layer 1" xmlns="http://www.w3.org/2000/svg" xmlns:xlink="http://www.w3.org/1999/xlink" viewBox="0 0 1280 1280"><defs><style>.cls-1{fill:none;}.cls-2{clip-path:url(#clip-path);}.cls-3{fill:#a8120b;}.cls-4{fill:#b8b614;}.cls-5{fill:#c48720;}.cls-6{fill:#322758;}.cls-7{fill:#8a51cc;}.cls-8{fill:#37175c;}.cls-9{clip-path:url(#clip-path-2);}.cls-10{fill:#d8c2f2;}</style><clipPath id="clip-path"><polygon id="Mask" class="cls-1" points="1083.8 896.2 1083.8 383.8 640 127.6 196.2 383.8 196.2 896.2 640 1152.4 1083.8 896.2"/></clipPath><clipPath id="clip-path-2"><path class="cls-1" d="M640,1224.6,133.7,932.3V347.7L640,55.4l506.3,292.3V932.3Zm426.3-338.5V393.9L640,147.8,213.7,393.9V886.1L640,1132.2Z"/></clipPath></defs><title>militaryTradition</title><g id="Inner"><g class="cls-2"><g id="Military_Tradition" data-name="Military Tradition"><path class="cls-3" d="M365.5,1155.8l-86.9-981,635.2-56.2q43.4,490.2,86.9,980.9Z"/><rect class="cls-4" x="320.8" y="417.9" width="637.7" height="438.6" transform="translate(-53.7 58.9) rotate(-5.1)"/><path class="cls-5" d="M912.3,118.7l64.3-5.7q43.5,490.5,86.9,981l-64.3,5.6Q955.7,609.3,912.3,118.7Z"/><path class="cls-6" d="M976.3,113l64.3-5.7q43.7,493.4,87.4,986.7l-64.3,5.7Z"/><path class="cls-5" d="M367.7,1161.3l-64.3,5.7q-43.5-490.5-86.9-980.9l64.3-5.7Q324.3,670.8,367.7,1161.3Z"/><path class="cls-6" d="M303.7,1167l-64.3,5.7Q195.8,679.3,152,186l64.3-5.7Z"/></g></g></g><g id="Outer"><path class="cls-7" d="M1165.1,943.2V336.8L640,33.6,114.9,336.8V943.2L640,1246.4ZM213.7,393.9,640,147.8l426.3,246.1V886.1L640,1132.2,213.7,886.1Z"/><path class="cls-8" d="M640,55.4l506.3,292.3V932.3L640,1224.6,133.7,932.3V347.7L640,55.4M640,0,85.7,320V960L640,1280l554.3-320V320L640,0Z"/></g><g id="Line"><g class="cls-9"><rect class="cls-10" x="316.4" width="32" height="1280"/></g></g></svg>