<svg id="Layer_1" data-name="Layer 1" xmlns="http://www.w3.org/2000/svg" xmlns:xlink="http://www.w3.org/1999/xlink" viewBox="0 0 1280 1280"><defs><style>.cls-1{fill:none;}.cls-2{clip-path:url(#clip-path);}.cls-3{fill:#0f0710;}.cls-4{fill:#6b637e;}.cls-5{fill:#8a51cc;}.cls-6{fill:#37175c;}.cls-7{clip-path:url(#clip-path-2);}.cls-8{fill:#d8c2f2;}</style><clipPath id="clip-path"><polygon id="Mask" class="cls-1" points="1083.8 896.2 1083.8 383.8 640 127.6 196.2 383.8 196.2 896.2 640 1152.4 1083.8 896.2"/></clipPath><clipPath id="clip-path-2"><path class="cls-1" d="M640,1224.6,133.7,932.3V347.7L640,55.4l506.3,292.3V932.3Zm426.3-338.5V393.9L640,147.8,213.7,393.9V886.1L640,1132.2Z"/></clipPath></defs><title>mysticism</title><g id="Inner"><g class="cls-2"><g id="Mysticism"><rect class="cls-3" x="55.8" y="482.6" width="495.3" height="495.26" transform="translate(-480.7 627.9) rotate(-60)"/><polygon class="cls-4" points="853.3 515.1 1068.9 885.9 458.7 1314.9 211.1 885.9 853.3 515.1"/><rect class="cls-3" x="729" y="302.2" width="495.3" height="495.26" transform="matrix(0.5, -0.87, 0.87, 0.5, 12.14, 1120.66)"/><polygon class="cls-4" points="1068.9 394.1 821.3 -34.9 211.1 394.1 640 641.7 1068.9 394.1"/></g></g></g><g id="Outer"><path class="cls-5" d="M1165.1,943.2V336.8L640,33.6,114.9,336.8V943.2L640,1246.4ZM213.7,393.9,640,147.8l426.3,246.1V886.1L640,1132.2,213.7,886.1Z"/><path class="cls-6" d="M640,55.4l506.3,292.3V932.3L640,1224.6,133.7,932.3V347.7L640,55.4M640,0,85.7,320V960L640,1280l554.3-320V320L640,0Z"/></g><g id="Line"><g class="cls-7"><rect class="cls-8" x="316.4" width="32" height="1280"/></g></g></svg>