<svg id="Layer_1" data-name="Layer 1" xmlns="http://www.w3.org/2000/svg" xmlns:xlink="http://www.w3.org/1999/xlink" viewBox="0 0 1280 1280"><defs><style>.cls-1{fill:none;}.cls-2{clip-path:url(#clip-path);}.cls-3{fill:#d2d2b5;}.cls-4{fill:#9ea07e;}.cls-5{fill:#6a6c50;}.cls-6{fill:#4b4a42;}.cls-7{fill:#8a51cc;}.cls-8{fill:#37175c;}.cls-9{clip-path:url(#clip-path-2);}.cls-10{fill:#d8c2f2;}</style><clipPath id="clip-path"><polygon id="Mask" class="cls-1" points="1083.76 896.21 1083.76 383.79 640 127.59 196.24 383.79 196.24 896.21 640 1152.41 1083.76 896.21"/></clipPath><clipPath id="clip-path-2"><path class="cls-1" d="M640,1224.57,133.74,932.29V347.71L640,55.43l506.26,292.28V932.29ZM1066.26,886.1V393.9L640,147.8,213.74,393.9V886.1L640,1132.2Z"/></clipPath></defs><title>recordedHistory</title><g id="Inner"><g class="cls-2"><g id="Recorded_History" data-name="Recorded History"><path class="cls-3" d="M309.52,606.67,267.6,180.37l816.53-80.29,41.92,426.3Z"/><path class="cls-4" d="M309.33,604.72l816.53-80.3,35.19,359.45L344.82,964.13Z"/><path class="cls-5" d="M344.69,962.74l816.23-80.26,19.68,200-816.26,80.26Z"/><path class="cls-6" d="M269.93,179q48.46,492.75,96.92,985.5l-169.24,16.64L100.7,195.65Z"/></g></g></g><g id="Outer"><path class="cls-7" d="M1165.12,943.18V336.82L640,33.65,114.88,336.82V943.18L640,1246.35ZM213.74,393.9,640,147.8l426.26,246.1V886.1L640,1132.2,213.74,886.1Z"/><path class="cls-8" d="M640,55.43l506.26,292.28V932.29L640,1224.57,133.74,932.29V347.71L640,55.43M640,0,85.74,320V960L640,1280l554.26-320V320L640,0Z"/></g><g id="Line"><g class="cls-9"><rect class="cls-10" x="316.43" width="32" height="1280"/></g></g></svg>