<svg id="Layer_1" data-name="Layer 1" xmlns="http://www.w3.org/2000/svg" xmlns:xlink="http://www.w3.org/1999/xlink" viewBox="0 0 1280 1280"><defs><style>.cls-1{fill:none;}.cls-2{clip-path:url(#clip-path);}.cls-3{fill:#8a8056;}.cls-4{fill:#8cacba;}.cls-5{fill:#b7b07b;}.cls-6{fill:#477191;}.cls-7{fill:#5d98c6;}.cls-8{fill:#5289cc;}.cls-9{fill:#17355c;}.cls-10{clip-path:url(#clip-path-2);}.cls-11{fill:#c2d8f2;}</style><clipPath id="clip-path"><polygon id="Mask" class="cls-1" points="1083.76 896.21 1083.76 383.79 640 127.59 196.24 383.79 196.24 896.21 640 1152.41 1083.76 896.21"/></clipPath><clipPath id="clip-path-2"><path class="cls-1" d="M640,1224.57,133.74,932.29V347.71L640,55.43l506.26,292.28V932.29ZM1066.26,886.1V393.9L640,147.8,213.74,393.9V886.1L640,1132.2Z"/></clipPath></defs><title>Cartography</title><g id="Inner"><g class="cls-2"><g id="Cartography"><path class="cls-3" d="M311.6,1145.66,208.15,892.09,1124.94,518,1228.4,771.61Z"/><path class="cls-4" d="M302.91,1124.26l916.73-374L1270.55,875,353.82,1249Z"/><path class="cls-3" d="M145.73,739.11,42.28,485.54l916.8-374,103.45,253.57Z"/><path class="cls-5" d="M145.32,738.09l916.79-374,63.42,155L208.39,893.17Q176.86,815.64,145.32,738.09Z"/><path class="cls-6" d="M9.33,404.74l916.77-374q23.52,57.75,47.06,115.51L56.5,520.21Q32.92,462.48,9.33,404.74Z"/><path class="cls-7" d="M-4.67,838.9,431.14-50.16l79.05,38.81-435.76,889Z"/><path class="cls-7" d="M755.09,1264.82l435.78-889,159.73,78.29-435.79,889Z"/></g></g></g><g id="Outer"><path class="cls-8" d="M1165.12,943.18V336.82L640,33.65,114.88,336.82V943.18L640,1246.35ZM213.74,393.9,640,147.8l426.26,246.1V886.1L640,1132.2,213.74,886.1Z"/><path class="cls-9" d="M640,55.43l506.26,292.28V932.29L640,1224.57,133.74,932.29V347.71L640,55.43M640,0,85.74,320V960L640,1280l554.26-320V320L640,0Z"/></g><g id="Line"><g class="cls-10"><rect class="cls-11" x="521.53" width="32" height="1280"/></g></g></svg>