<svg id="Layer_1" data-name="Layer 1" xmlns="http://www.w3.org/2000/svg" xmlns:xlink="http://www.w3.org/1999/xlink" viewBox="0 0 1280 1280"><defs><style>.cls-1{fill:none;}.cls-2{clip-path:url(#clip-path);}.cls-3{fill:#bd924a;}.cls-4{fill:#7e6133;}.cls-5{fill:#d7b476;}.cls-6{fill:#d8a043;}.cls-7{fill:#1f1715;}.cls-8{fill:#5289cc;}.cls-9{fill:#17355c;}.cls-10{clip-path:url(#clip-path-2);}.cls-11{fill:#c2d8f2;}</style><clipPath id="clip-path"><polygon id="Mask" class="cls-1" points="1083.76 896.21 1083.76 383.79 640 127.59 196.24 383.79 196.24 896.21 640 1152.41 1083.76 896.21"/></clipPath><clipPath id="clip-path-2"><path class="cls-1" d="M640,1224.57,133.74,932.29V347.71L640,55.43l506.26,292.28V932.29ZM1066.26,886.1V393.9L640,147.8,213.74,393.9V886.1L640,1132.2Z"/></clipPath></defs><title>Celestial Navigation</title><g id="Inner"><g class="cls-2"><g id="Celestial_Navigation" data-name="Celestial Navigation"><path class="cls-3" d="M26.59,304.57,977.45,27.69q42.15,144.9,84.32,289.79L111,594.32Z"/><path class="cls-4" d="M212,941.07l950.74-276.85q29.76,101.91,59.51,203.82L271.21,1145Z"/><path class="cls-5" d="M110.42,592.78l951-276.93q50.86,174.87,101.75,349.73L212.32,942.46Q161.37,767.62,110.42,592.78Z"/><path class="cls-6" d="M271,1144.2l951-276.91c10.34,35.55,20.69,71.09,31.35,107.69l-950.95,276.9Z"/><path class="cls-7" d="M77.27,766.54l-130-111.73L592.85-96.42l130,111.73Z"/></g></g></g><g id="Outer"><path class="cls-8" d="M1165.12,943.18V336.82L640,33.65,114.88,336.82V943.18L640,1246.35ZM213.74,393.9,640,147.8l426.26,246.1V886.1L640,1132.2,213.74,886.1Z"/><path class="cls-9" d="M640,55.43l506.26,292.28V932.29L640,1224.57,133.74,932.29V347.71L640,55.43M640,0,85.74,320V960L640,1280l554.26-320V320L640,0Z"/></g><g id="Line"><g class="cls-10"><rect class="cls-11" x="521.53" width="32" height="1280"/></g></g></svg>