<svg id="Layer_1" data-name="Layer 1" xmlns="http://www.w3.org/2000/svg" xmlns:xlink="http://www.w3.org/1999/xlink" viewBox="0 0 1280 1280"><defs><style>.cls-1{fill:none;}.cls-2{clip-path:url(#clip-path);}.cls-3{fill:#2c2127;}.cls-4{fill:#7f6c73;}.cls-5{fill:#69541b;}.cls-6{fill:#dbc749;}.cls-7{fill:#9e8328;}.cls-8{fill:#5289cc;}.cls-9{fill:#17355c;}.cls-10{clip-path:url(#clip-path-2);}.cls-11{fill:#c2d8f2;}</style><clipPath id="clip-path"><polygon id="Mask" class="cls-1" points="1083.76 896.21 1083.76 383.79 640 127.59 196.24 383.79 196.24 896.21 640 1152.41 1083.76 896.21"/></clipPath><clipPath id="clip-path-2"><path class="cls-1" d="M640,1224.57,133.74,932.29V347.71L640,55.43l506.26,292.28V932.29ZM1066.26,886.1V393.9L640,147.8,213.74,393.9V886.1L640,1132.2Z"/></clipPath></defs><title>Construction</title><g id="Inner"><g class="cls-2"><g id="Construction"><path class="cls-3" d="M271.73,759.9,578.81,109.51l315.62,149L587.35,908.92Z"/><path class="cls-4" d="M394,22.27l208.08,98.24L295,770.9,87,672.67Z"/><path class="cls-5" d="M892.68,257.7l394,186-307.06,650.4-394-186Z"/><path class="cls-6" d="M181,698.38l967.69,210q-21.07,97-42.14,194.06l-967.65-210Q160,795.42,181,698.38Z"/><path class="cls-7" d="M139.12,891.42l967.65,210q-23.52,108.77-47,217.53l-968-210.1Z"/></g></g></g><g id="Outer"><path class="cls-8" d="M1165.12,943.18V336.82L640,33.65,114.88,336.82V943.18L640,1246.35ZM213.74,393.9,640,147.8l426.26,246.1V886.1L640,1132.2,213.74,886.1Z"/><path class="cls-9" d="M640,55.43l506.26,292.28V932.29L640,1224.57,133.74,932.29V347.71L640,55.43M640,0,85.74,320V960L640,1280l554.26-320V320L640,0Z"/></g><g id="Line"><g class="cls-10"><rect class="cls-11" x="521.53" width="32" height="1280"/></g></g></svg>