<svg id="Layer_1" data-name="Layer 1" xmlns="http://www.w3.org/2000/svg" xmlns:xlink="http://www.w3.org/1999/xlink" viewBox="0 0 1280 1280"><defs><style>.cls-1{fill:none;}.cls-2{clip-path:url(#clip-path);}.cls-3{fill:#393c3a;}.cls-4{fill:#949493;}.cls-5{fill:#7a1f20;}.cls-6{fill:#5289cc;}.cls-7{fill:#17355c;}.cls-8{clip-path:url(#clip-path-2);}.cls-9{fill:#c2d8f2;}</style><clipPath id="clip-path"><polygon id="Mask" class="cls-1" points="1083.76 896.21 1083.76 383.79 640 127.59 196.24 383.79 196.24 896.21 640 1152.41 1083.76 896.21"/></clipPath><clipPath id="clip-path-2"><path class="cls-1" d="M640,1224.57,133.74,932.29V347.71L640,55.43l506.26,292.28V932.29ZM1066.26,886.1V393.9L640,147.8,213.74,393.9V886.1L640,1132.2Z"/></clipPath></defs><title>Education</title><g id="Inner"><g class="cls-2"><g id="Education"><path class="cls-3" d="M145.68,1040.15q-.47-361-.91-722c-.07-57.47,0-114.94,0-173.22h988.58c.62,2.72,1.85,5.63,1.85,8.54q.13,440,0,880.07a49.31,49.31,0,0,1-.88,6.57Z"/><path class="cls-4" d="M145.68,1037.68h988.68q0,47.68,0,95.36H145.72Q145.71,1085.36,145.68,1037.68Z"/><polygon class="cls-5" points="153.33 734.75 1114.7 499.98 1125.57 545.34 164.59 780.02 153.33 734.75"/></g></g></g><g id="Outer"><path class="cls-6" d="M1165.12,943.18V336.82L640,33.65,114.88,336.82V943.18L640,1246.35ZM213.74,393.9,640,147.8l426.26,246.1V886.1L640,1132.2,213.74,886.1Z"/><path class="cls-7" d="M640,55.43l506.26,292.28V932.29L640,1224.57,133.74,932.29V347.71L640,55.43M640,0,85.74,320V960L640,1280l554.26-320V320L640,0Z"/></g><g id="Line"><g class="cls-8"><rect class="cls-9" x="521.53" width="32" height="1280"/></g></g></svg>