<svg id="Layer_1" data-name="Layer 1" xmlns="http://www.w3.org/2000/svg" xmlns:xlink="http://www.w3.org/1999/xlink" viewBox="0 0 1280 1280"><defs><style>.cls-1{fill:none;}.cls-2{clip-path:url(#clip-path);}.cls-3{fill:#3b5977;}.cls-4{fill:#51769b;}.cls-5{fill:#af8638;}.cls-6{fill:#5e4317;}.cls-7{fill:#e6ce8d;}.cls-8{fill:#5289cc;}.cls-9{fill:#17355c;}.cls-10{clip-path:url(#clip-path-2);}.cls-11{fill:#c2d8f2;}</style><clipPath id="clip-path"><polygon id="Mask" class="cls-1" points="1083.76 896.21 1083.76 383.79 640 127.59 196.24 383.79 196.24 896.21 640 1152.41 1083.76 896.21"/></clipPath><clipPath id="clip-path-2"><path class="cls-1" d="M640,1224.57,133.74,932.29V347.71L640,55.43l506.26,292.28V932.29ZM1066.26,886.1V393.9L640,147.8,213.74,393.9V886.1L640,1132.2Z"/></clipPath></defs><title>Gunpowder</title><g id="Inner"><g class="cls-2"><g id="Gunpowder"><path class="cls-3" d="M304.33,655.29,805.08,117.78l284.54,265.08Q839.51,651.33,588.87,920.37Z"/><path class="cls-4" d="M115.81,476.3l724.56,675L666,1338.63-58.72,663.45Q28.53,569.86,115.81,476.3Z"/><path class="cls-5" d="M616.55-58.72,806.64,118.36,131.47,843.13-58.64,666Z"/><path class="cls-6" d="M1184.68,470.55l153.87,143.34L663.37,1338.64,509.5,1195.3C618.86,1077.92,1075.33,587.94,1184.68,470.55Z"/><path class="cls-7" d="M1089.14,381.55l96.16,89.58L510.12,1195.88,414,1106.3Z"/></g></g></g><g id="Outer"><path class="cls-8" d="M1165.12,943.18V336.82L640,33.65,114.88,336.82V943.18L640,1246.35ZM213.74,393.9,640,147.8l426.26,246.1V886.1L640,1132.2,213.74,886.1Z"/><path class="cls-9" d="M640,55.43l506.26,292.28V932.29L640,1224.57,133.74,932.29V347.71L640,55.43M640,0,85.74,320V960L640,1280l554.26-320V320L640,0Z"/></g><g id="Line"><g class="cls-10"><rect class="cls-11" x="521.53" width="32" height="1280"/></g></g></svg>