<svg id="Layer_1" data-name="Layer 1" xmlns="http://www.w3.org/2000/svg" xmlns:xlink="http://www.w3.org/1999/xlink" viewBox="0 0 1280 1280"><defs><style>.cls-1{fill:none;}.cls-2{clip-path:url(#clip-path);}.cls-3{fill:#624837;}.cls-4{fill:#3e342a;}.cls-5{fill:#9a855c;}.cls-6{fill:#b0b7b4;}.cls-7{fill:#22697f;}.cls-8{fill:#5289cc;}.cls-9{fill:#17355c;}.cls-10{clip-path:url(#clip-path-2);}.cls-11{fill:#c2d8f2;}</style><clipPath id="clip-path"><polygon id="Mask" class="cls-1" points="1083.76 896.21 1083.76 383.79 640 127.59 196.24 383.79 196.24 896.21 640 1152.41 1083.76 896.21"/></clipPath><clipPath id="clip-path-2"><path class="cls-1" d="M640,1224.57,133.74,932.29V347.71L640,55.43l506.26,292.28V932.29ZM1066.26,886.1V393.9L640,147.8,213.74,393.9V886.1L640,1132.2Z"/></clipPath></defs><title>Horseback Riding</title><g id="Inner"><g class="cls-2"><g id="Horseback_Riding" data-name="Horseback Riding"><path class="cls-3" d="M153.37,353.39,1143,383.12,1131.63,759,142.12,729.22Z"/><path class="cls-4" d="M142.17,727.6l989.5,29.73q-4.07,137.53-8.14,275.06l-989.74-29.73Q138,865.13,142.17,727.6Z"/><path class="cls-5" d="M159.94,132l989.75,29.73q-3.32,111.45-6.61,222.88L153.16,354.87Z"/><path class="cls-6" d="M133.73,1001.68l989.92,29.74-3.42,116.32L130.15,1118Q132,1059.84,133.73,1001.68Z"/><path class="cls-7" d="M83.75,742.11,831.88,93.17l55.17,63.48L138.8,805.7Z"/></g></g></g><g id="Outer"><path class="cls-8" d="M1165.12,943.18V336.82L640,33.65,114.88,336.82V943.18L640,1246.35ZM213.74,393.9,640,147.8l426.26,246.1V886.1L640,1132.2,213.74,886.1Z"/><path class="cls-9" d="M640,55.43l506.26,292.28V932.29L640,1224.57,133.74,932.29V347.71L640,55.43M640,0,85.74,320V960L640,1280l554.26-320V320L640,0Z"/></g><g id="Line"><g class="cls-10"><rect class="cls-11" x="521.53" width="32" height="1280"/></g></g></svg>