<svg id="Layer_1" data-name="Layer 1" xmlns="http://www.w3.org/2000/svg" xmlns:xlink="http://www.w3.org/1999/xlink" viewBox="0 0 1280 1280"><defs><style>.cls-1{fill:none;}.cls-2{clip-path:url(#clip-path);}.cls-3{fill:#595144;}.cls-4{fill:#666363;}.cls-5{fill:#b4ad92;}.cls-6{fill:#9e9c9d;}.cls-7{fill:#5289cc;}.cls-8{fill:#17355c;}.cls-9{clip-path:url(#clip-path-2);}.cls-10{fill:#c2d8f2;}</style><clipPath id="clip-path"><polygon id="Mask" class="cls-1" points="1083.76 896.21 1083.76 383.79 640 127.59 196.24 383.79 196.24 896.21 640 1152.41 1083.76 896.21"/></clipPath><clipPath id="clip-path-2"><path class="cls-1" d="M640,1224.57,133.74,932.29V347.71L640,55.43l506.26,292.28V932.29ZM1066.26,886.1V393.9L640,147.8,213.74,393.9V886.1L640,1132.2Z"/></clipPath></defs><title>Machinery</title><g id="Inner"><g class="cls-2"><g id="Machinery"><path class="cls-3" d="M187.39,883.41,242,802.68l606,410-54.63,80.73Z"/><path class="cls-3" d="M335.77,664.13,512.83,402.45l606,410L941.75,1074.16Z"/><path class="cls-4" d="M507.72-47.31,722,97.68,188.17,886.5-26,741.61Z"/><path class="cls-5" d="M336.45,663.14l606,410L847,1214.41,240.82,804.25Q288.64,733.69,336.45,663.14Z"/><path class="cls-5" d="M718.94,97.85l606,410L1212.86,673.7,606.68,263.54Z"/><path class="cls-6" d="M607.19,262.78l606.18,410.15c-31.45,46.48-62.89,93-95.14,140.61L512.05,403.39Z"/></g></g></g><g id="Outer"><path class="cls-7" d="M1165.12,943.18V336.82L640,33.65,114.88,336.82V943.18L640,1246.35ZM213.74,393.9,640,147.8l426.26,246.1V886.1L640,1132.2,213.74,886.1Z"/><path class="cls-8" d="M640,55.43l506.26,292.28V932.29L640,1224.57,133.74,932.29V347.71L640,55.43M640,0,85.74,320V960L640,1280l554.26-320V320L640,0Z"/></g><g id="Line"><g class="cls-9"><rect class="cls-10" x="521.53" width="32" height="1280"/></g></g></svg>