<svg id="Layer_1" data-name="Layer 1" xmlns="http://www.w3.org/2000/svg" xmlns:xlink="http://www.w3.org/1999/xlink" viewBox="0 0 1280 1280"><defs><style>.cls-1{fill:none;}.cls-2{clip-path:url(#clip-path);}.cls-3{fill:#b87d3a;}.cls-4{fill:#71452d;}.cls-5{fill:#211211;}.cls-6{fill:#4a2726;}.cls-7{fill:#5289cc;}.cls-8{fill:#17355c;}.cls-9{clip-path:url(#clip-path-2);}.cls-10{fill:#c2d8f2;}</style><clipPath id="clip-path"><polygon id="Mask" class="cls-1" points="1083.76 896.21 1083.76 383.79 640 127.59 196.24 383.79 196.24 896.21 640 1152.41 1083.76 896.21"/></clipPath><clipPath id="clip-path-2"><path class="cls-1" d="M640,1224.57,133.74,932.29V347.71L640,55.43l506.26,292.28V932.29ZM1066.26,886.1V393.9L640,147.8,213.74,393.9V886.1L640,1132.2Z"/></clipPath></defs><title>Mathematics</title><g id="Inner"><g class="cls-2"><g id="Mathematics"><path class="cls-3" d="M-11.48,894.83Q187.66,441.35,386.79-12.11l457,200.73L445.54,1095.48Z"/><path class="cls-4" d="M443.29,1094.49Q642.42,641.06,841.53,187.63l449.91,197.6L893.22,1292Z"/><path class="cls-5" d="M778.57,154Q740.26,647.77,702,1141.56l-200.52-15.65L578,138.54Z"/><path class="cls-6" d="M579,138.61,502.4,1126l-186.75-14.49,76.6-987.36Z"/><path class="cls-6" d="M964.34,168.5l-76.59,987.37L701,1141.39,777.6,154Z"/><path class="cls-3" d="M234.68,41.22,1207.45,228q-21.32,110.88-42.61,221.77L192.14,263Z"/><path class="cls-4" d="M78.91,823.32,1051.61,1010q-21.49,111.9-43,223.81L36,1047.14Z"/></g></g></g><g id="Outer"><path class="cls-7" d="M1165.12,943.18V336.82L640,33.65,114.88,336.82V943.18L640,1246.35ZM213.74,393.9,640,147.8l426.26,246.1V886.1L640,1132.2,213.74,886.1Z"/><path class="cls-8" d="M640,55.43l506.26,292.28V932.29L640,1224.57,133.74,932.29V347.71L640,55.43M640,0,85.74,320V960L640,1280l554.26-320V320L640,0Z"/></g><g id="Line"><g class="cls-9"><rect class="cls-10" x="521.53" width="32" height="1280"/></g></g></svg>