<svg id="Layer_1" data-name="Layer 1" xmlns="http://www.w3.org/2000/svg" xmlns:xlink="http://www.w3.org/1999/xlink" viewBox="0 0 1280 1280"><defs><style>.cls-1{fill:none;}.cls-2{clip-path:url(#clip-path);}.cls-3{fill:#49413c;}.cls-4{fill:#673619;}.cls-5{fill:#c2bdb8;}.cls-6{fill:#84431e;}.cls-7{fill:#5289cc;}.cls-8{fill:#17355c;}.cls-9{clip-path:url(#clip-path-2);}.cls-10{fill:#c2d8f2;}</style><clipPath id="clip-path"><polygon id="Mask" class="cls-1" points="1083.76 896.21 1083.76 383.79 640 127.59 196.24 383.79 196.24 896.21 640 1152.41 1083.76 896.21"/></clipPath><clipPath id="clip-path-2"><path class="cls-1" d="M640,1224.57,133.74,932.29V347.71L640,55.43l506.26,292.28V932.29ZM1066.26,886.1V393.9L640,147.8,213.74,393.9V886.1L640,1132.2Z"/></clipPath></defs><title>Mining</title><g id="Inner"><g class="cls-2"><g id="Mining"><path class="cls-3" d="M289.64,290.59,570,12.25l697.26,702.26L986.9,992.84Z"/><path class="cls-4" d="M291.87,289.7,668.64,669.17l-350.23,348.1L-58.73,637.43Z"/><path class="cls-5" d="M640.93-58.85l697.91,702.91-72.2,71.61L568.81,12.83Z"/><path class="cls-6" d="M667.09,667.6l320.73,323L637.3,1338.44l-320.51-322.8Z"/></g></g></g><g id="Outer"><path class="cls-7" d="M1165.12,943.18V336.82L640,33.65,114.88,336.82V943.18L640,1246.35ZM213.74,393.9,640,147.8l426.26,246.1V886.1L640,1132.2,213.74,886.1Z"/><path class="cls-8" d="M640,55.43l506.26,292.28V932.29L640,1224.57,133.74,932.29V347.71L640,55.43M640,0,85.74,320V960L640,1280l554.26-320V320L640,0Z"/></g><g id="Line"><g class="cls-9"><rect class="cls-10" x="521.53" width="32" height="1280"/></g></g></svg>