<svg id="Layer_1" data-name="Layer 1" xmlns="http://www.w3.org/2000/svg" xmlns:xlink="http://www.w3.org/1999/xlink" viewBox="0 0 1280 1280"><defs><style>.cls-1{fill:none;}.cls-2{clip-path:url(#clip-path);}.cls-3{fill:#f8f8e0;}.cls-4{fill:#c1c4a9;}.cls-5{fill:#a92b33;}.cls-6{fill:#5289cc;}.cls-7{fill:#17355c;}.cls-8{clip-path:url(#clip-path-2);}.cls-9{fill:#c2d8f2;}</style><clipPath id="clip-path"><polygon id="Mask" class="cls-1" points="1083.76 896.21 1083.76 383.79 640 127.59 196.24 383.79 196.24 896.21 640 1152.41 1083.76 896.21"/></clipPath><clipPath id="clip-path-2"><path class="cls-1" d="M640,1224.57,133.74,932.29V347.71L640,55.43l506.26,292.28V932.29ZM1066.26,886.1V393.9L640,147.8,213.74,393.9V886.1L640,1132.2Z"/></clipPath></defs><title>Square Rigging</title><g id="Inner"><g class="cls-2"><g id="Square_Rigging" data-name="Square Rigging"><path class="cls-3" d="M144.74,997.51V756.69h990.52V997.51Z"/><path class="cls-3" d="M144.74,600.86V398.35h990.52V600.86Z"/><path class="cls-4" d="M144.74,996.71h990.52l-.21,78.86H145Z"/><path class="cls-4" d="M144.74,600h990.52q-.1,78.85-.22,157.72H145Z"/><path class="cls-3" d="M144.74,310.48V174.33h990.52V310.48Z"/><path class="cls-4" d="M144.74,309.92h990.52q-.1,44.58-.22,89.16H145Z"/><path class="cls-5" d="M145.43,1077.72h989.14v55.22H145.43Z"/><path class="cls-5" d="M145.43,147.13h989.14v27.61H145.43Z"/></g></g></g><g id="Outer"><path class="cls-6" d="M1165.12,943.18V336.82L640,33.65,114.88,336.82V943.18L640,1246.35ZM213.74,393.9,640,147.8l426.26,246.1V886.1L640,1132.2,213.74,886.1Z"/><path class="cls-7" d="M640,55.43l506.26,292.28V932.29L640,1224.57,133.74,932.29V347.71L640,55.43M640,0,85.74,320V960L640,1280l554.26-320V320L640,0Z"/></g><g id="Line"><g class="cls-8"><rect class="cls-9" x="521.53" width="32" height="1280"/></g></g></svg>