<svg id="Layer_1" data-name="Layer 1" xmlns="http://www.w3.org/2000/svg" xmlns:xlink="http://www.w3.org/1999/xlink" viewBox="0 0 1280 1280"><defs><style>.cls-1{fill:none;}.cls-2{clip-path:url(#clip-path);}.cls-3{fill:#1d140e;}.cls-4{fill:#523b26;}.cls-5{fill:#a78965;}.cls-6{fill:#5289cc;}.cls-7{fill:#17355c;}.cls-8{clip-path:url(#clip-path-2);}.cls-9{fill:#c2d8f2;}</style><clipPath id="clip-path"><polygon id="Mask" class="cls-1" points="1083.76 896.21 1083.76 383.79 640 127.59 196.24 383.79 196.24 896.21 640 1152.41 1083.76 896.21"/></clipPath><clipPath id="clip-path-2"><path class="cls-1" d="M640,1224.57,133.74,932.29V347.71L640,55.43l506.26,292.28V932.29ZM1066.26,886.1V393.9L640,147.8,213.74,393.9V886.1L640,1132.2Z"/></clipPath></defs><title>Stirrups</title><g id="Inner"><g class="cls-2"><g id="Stirrups"><path class="cls-3" d="M104.71,973.77l4.92-53.37c0-.25.05-.5.09-.81l982.45,111.81c.52.24,1.61.58,1.59.78q-2.9,26.47-6,52.92c0,.18-.76.28-1.16.42Z"/><path class="cls-3" d="M93.32,1073.88q1.91-21.81,3.8-43.62c0-.21,0-.42.08-.67l982.45,111.81c.53.21,1.62.51,1.6.68q-2.32,21.62-4.89,43.22c0,.15-.75.22-1.14.32Z"/><path class="cls-4" d="M205,92.43l981.9,111.74q-47.15,414.75-94.28,829.5L110.48,921.9Z"/><path class="cls-5" d="M104.61,973.48l982.15,111.78c-2.11,18.58-4.23,37.16-6.43,56.47L98.18,1030Z"/><path class="cls-3" d="M167.68,691.09q-2-26.72-4-53.44c0-.25,0-.51,0-.82L1151,583.68c.56.16,1.69.3,1.7.51q1.56,26.58,2.89,53.18c0,.18-.7.4-1.07.61Z"/><path class="cls-3" d="M173.1,791.7q-1.75-21.83-3.5-43.65c0-.21,0-.41,0-.67l987.36-53.15c.56.13,1.69.24,1.7.4q1.29,21.72,2.36,43.44c0,.15-.7.34-1.07.51Z"/><path class="cls-4" d="M120-194.66l986.8-53.12,45,833.63L164.74,639Z"/><path class="cls-5" d="M167.53,690.83l987.06-53.14c1,18.67,2,37.35,3.06,56.76L170.59,747.58Z"/></g></g></g><g id="Outer"><path class="cls-6" d="M1165.12,943.18V336.82L640,33.65,114.88,336.82V943.18L640,1246.35ZM213.74,393.9,640,147.8l426.26,246.1V886.1L640,1132.2,213.74,886.1Z"/><path class="cls-7" d="M640,55.43l506.26,292.28V932.29L640,1224.57,133.74,932.29V347.71L640,55.43M640,0,85.74,320V960L640,1280l554.26-320V320L640,0Z"/></g><g id="Line"><g class="cls-8"><rect class="cls-9" x="521.53" width="32" height="1280"/></g></g></svg>