<?xml version="1.0" encoding="iso-8859-1"?>
<!-- Generator: Adobe Illustrator 23.0.6, SVG Export Plug-In . SVG Version: 6.00 Build 0)  -->
<svg version="1.1" xmlns="http://www.w3.org/2000/svg" xmlns:xlink="http://www.w3.org/1999/xlink" x="0px" y="0px"
	 viewBox="0 0 1108.513 1280" style="enable-background:new 0 0 1108.513 1280;" xml:space="preserve">
<g id="Desert">
	<polygon id="Surface_2_" style="fill:#E2CC36;" points="1108.513,960 1108.513,320 554.256,0 0,320 0,960 554.256,1280 	"/>
	<polygon id="Edge_2_" style="opacity:0.5;fill:none;stroke:#F4EFE4;stroke-width:6;stroke-miterlimit:10;" points="1073.871,940 
		1073.871,340 554.256,40 34.641,340 34.641,940 554.256,1240 	"/>
	<g id="Top_3_">
		
			<line style="fill:none;stroke:#D4B81A;stroke-width:22.6664;stroke-miterlimit:10;" x1="288.905" y1="493.765" x2="203.019" y2="493.765"/>
		
			<line style="fill:none;stroke:#D4B81A;stroke-width:22.6664;stroke-miterlimit:10;" x1="484.788" y1="613.765" x2="398.901" y2="613.765"/>
		
			<line style="fill:none;stroke:#D4B81A;stroke-width:22.6664;stroke-miterlimit:10;" x1="386.551" y1="533.765" x2="235.961" y2="533.765"/>
		
			<line style="fill:none;stroke:#D4B81A;stroke-width:22.6664;stroke-miterlimit:10;" x1="451.846" y1="573.765" x2="301.255" y2="573.765"/>
		
			<line style="fill:none;stroke:#D4B81A;stroke-width:22.6664;stroke-miterlimit:10;" x1="709.611" y1="321.294" x2="623.725" y2="321.294"/>
		
			<line style="fill:none;stroke:#D4B81A;stroke-width:22.6664;stroke-miterlimit:10;" x1="905.494" y1="441.294" x2="819.607" y2="441.294"/>
		
			<line style="fill:none;stroke:#D4B81A;stroke-width:22.6664;stroke-miterlimit:10;" x1="807.257" y1="361.294" x2="656.667" y2="361.294"/>
		
			<line style="fill:none;stroke:#D4B81A;stroke-width:22.6664;stroke-miterlimit:10;" x1="872.551" y1="401.294" x2="721.961" y2="401.294"/>
		
			<line style="fill:none;stroke:#D4B81A;stroke-width:22.6664;stroke-miterlimit:10;" x1="288.905" y1="838.706" x2="203.019" y2="838.706"/>
		
			<line style="fill:none;stroke:#D4B81A;stroke-width:22.6664;stroke-miterlimit:10;" x1="484.788" y1="958.706" x2="398.901" y2="958.706"/>
		
			<line style="fill:none;stroke:#D4B81A;stroke-width:22.6664;stroke-miterlimit:10;" x1="386.551" y1="878.706" x2="235.961" y2="878.706"/>
		
			<line style="fill:none;stroke:#D4B81A;stroke-width:22.6664;stroke-miterlimit:10;" x1="451.846" y1="918.706" x2="301.255" y2="918.706"/>
		
			<line style="fill:none;stroke:#D4B81A;stroke-width:22.6664;stroke-miterlimit:10;" x1="709.611" y1="666.235" x2="623.725" y2="666.235"/>
		
			<line style="fill:none;stroke:#D4B81A;stroke-width:22.6664;stroke-miterlimit:10;" x1="905.494" y1="786.235" x2="819.607" y2="786.235"/>
		
			<line style="fill:none;stroke:#D4B81A;stroke-width:22.6664;stroke-miterlimit:10;" x1="807.257" y1="706.235" x2="656.667" y2="706.235"/>
		
			<line style="fill:none;stroke:#D4B81A;stroke-width:22.6664;stroke-miterlimit:10;" x1="872.551" y1="746.235" x2="721.961" y2="746.235"/>
	</g>
</g>
<g id="Layer_1">
</g>
</svg>
