<?xml version="1.0" encoding="iso-8859-1"?>
<!-- Generator: Adobe Illustrator 23.0.6, SVG Export Plug-In . SVG Version: 6.00 Build 0)  -->
<svg version="1.1" xmlns="http://www.w3.org/2000/svg" xmlns:xlink="http://www.w3.org/1999/xlink" x="0px" y="0px"
	 viewBox="0 0 1108.513 1280" style="enable-background:new 0 0 1108.513 1280;" xml:space="preserve">
<g id="Plains">
	<polygon id="Surface_1_" style="fill:#C1D421;" points="1108.513,960 1108.513,320 554.256,0 0,320 0,960 554.256,1280 	"/>
	<polygon id="Edge_1_" style="opacity:0.5;fill:none;stroke:#F4EFE4;stroke-width:6;stroke-miterlimit:10;" points="1073.871,940 
		1073.871,340 554.256,40 34.641,340 34.641,940 554.256,1240 	"/>
	<g id="Top_1_">
		
			<line style="fill:none;stroke:#D9BF21;stroke-width:22.6664;stroke-miterlimit:10;" x1="293.966" y1="513.351" x2="293.966" y2="599.237"/>
		
			<line style="fill:none;stroke:#D9BF21;stroke-width:30.2219;stroke-miterlimit:10;" x1="351.57" y1="513.351" x2="351.57" y2="599.237"/>
		
			<line style="fill:none;stroke:#D9BF21;stroke-width:22.6664;stroke-miterlimit:10;" x1="409.174" y1="513.351" x2="409.174" y2="599.237"/>
		
			<line style="fill:none;stroke:#D9BF21;stroke-width:22.6664;stroke-miterlimit:10;" x1="699.339" y1="345.939" x2="699.339" y2="431.825"/>
		
			<line style="fill:none;stroke:#D9BF21;stroke-width:30.2219;stroke-miterlimit:10;" x1="756.942" y1="345.939" x2="756.942" y2="431.825"/>
		
			<line style="fill:none;stroke:#D9BF21;stroke-width:22.6664;stroke-miterlimit:10;" x1="814.546" y1="345.939" x2="814.546" y2="431.825"/>
		
			<line style="fill:none;stroke:#D9BF21;stroke-width:22.6664;stroke-miterlimit:10;" x1="699.339" y1="680.763" x2="699.339" y2="766.649"/>
		
			<line style="fill:none;stroke:#D9BF21;stroke-width:30.2219;stroke-miterlimit:10;" x1="756.942" y1="680.763" x2="756.942" y2="766.649"/>
		
			<line style="fill:none;stroke:#D9BF21;stroke-width:22.6664;stroke-miterlimit:10;" x1="814.546" y1="680.763" x2="814.546" y2="766.649"/>
		
			<line style="fill:none;stroke:#D9BF21;stroke-width:22.6664;stroke-miterlimit:10;" x1="293.966" y1="848.175" x2="293.966" y2="934.061"/>
		
			<line style="fill:none;stroke:#D9BF21;stroke-width:30.2219;stroke-miterlimit:10;" x1="351.57" y1="848.175" x2="351.57" y2="934.061"/>
		
			<line style="fill:none;stroke:#D9BF21;stroke-width:22.6664;stroke-miterlimit:10;" x1="409.174" y1="848.175" x2="409.174" y2="934.061"/>
	</g>
</g>
<g id="Layer_1">
</g>
</svg>
