<?xml version="1.0" encoding="iso-8859-1"?>
<!-- Generator: Adobe Illustrator 23.0.6, SVG Export Plug-In . SVG Version: 6.00 Build 0)  -->
<svg version="1.1" xmlns="http://www.w3.org/2000/svg" xmlns:xlink="http://www.w3.org/1999/xlink" x="0px" y="0px"
	 viewBox="0 0 1108.513 1280" style="enable-background:new 0 0 1108.513 1280;" xml:space="preserve">
<g id="Tundra_Hill">
	<polygon id="Surface_13_" style="fill:#6A4400;" points="1108.513,960 1108.513,320 554.256,0 0,320 0,960 554.256,1280 	"/>
	<polygon id="Edge_11_" style="opacity:0.5;fill:none;stroke:#F4EFE4;stroke-width:6;stroke-miterlimit:10;" points="1073.871,940 
		1073.871,340 554.256,40 34.641,340 34.641,940 554.256,1240 	"/>
	<polygon id="Bottom" style="fill:#C9DCEB;" points="772.433,765.964 772.433,514.036 554.256,388.072 336.08,514.036 
		336.08,765.964 554.256,891.928 	"/>
	<g id="Hill_4_" style="opacity:0.25;">
		<polygon points="490.389,604.222 290.375,535.42 90.362,604.222 90.362,604.222 290.375,470.586 490.389,604.222 		"/>
		<polygon points="754.27,405.893 554.256,337.091 354.242,405.893 354.242,405.893 554.256,272.257 754.27,405.893 		"/>
		<polygon points="1019.632,802.551 819.618,733.748 619.605,802.551 619.605,802.551 819.618,668.914 1019.632,802.551 		"/>
		<polygon points="754.27,1000.88 554.256,932.077 354.242,1000.88 354.242,1000.88 554.256,867.243 754.27,1000.88 		"/>
	</g>
	<g id="Top_11_">
		
			<line style="fill:none;stroke:#C9DCEB;stroke-width:22.6664;stroke-miterlimit:10;" x1="554.256" y1="289.883" x2="316.046" y2="427.414"/>
		
			<line style="fill:none;stroke:#C9DCEB;stroke-width:22.6664;stroke-miterlimit:10;" x1="414.256" y1="527.451" x2="176.046" y2="664.981"/>
		
			<line style="fill:none;stroke:#C9DCEB;stroke-width:22.6664;stroke-miterlimit:10;" x1="932.466" y1="615.019" x2="694.256" y2="752.549"/>
		
			<line style="fill:none;stroke:#C9DCEB;stroke-width:22.6664;stroke-miterlimit:10;" x1="792.466" y1="852.586" x2="554.256" y2="990.117"/>
	</g>
</g>
<g id="Layer_1">
</g>
</svg>
